<?xml version="1.0" standalone="no"?><!DOCTYPE svg PUBLIC "-//W3C//DTD SVG 1.1//EN"
  "http://www.w3.org/Graphics/SVG/1.1/DTD/svg11.dtd">
<svg t="1547793505138" class="icon" style="" viewBox="0 0 1024 1024" version="1.1" xmlns="http://www.w3.org/2000/svg"
     p-id="2504" xmlns:xlink="http://www.w3.org/1999/xlink" width="200" height="200">
  <defs>
    <style type="text/css"></style>
  </defs>
  <path
    d="M352 160v192H160V160h192m32-64H128c-17.6 0-32 14.4-32 32v256c0 17.6 14.4 32 32 32h256c17.6 0 32-14.4 32-32V128c0-17.6-14.4-32-32-32zM864 160v192H672V160h192m32-64H640c-17.6 0-32 14.4-32 32v256c0 17.6 14.4 32 32 32h256c17.6 0 32-14.4 32-32V128c0-17.6-14.4-32-32-32zM352 672v192H160V672h192m32-64H128c-17.6 0-32 14.4-32 32v256c0 17.6 14.4 32 32 32h256c17.6 0 32-14.4 32-32V640c0-17.6-14.4-32-32-32zM896 544H128c-17.6 0-32-14.4-32-32s14.4-32 32-32h768c17.6 0 32 14.4 32 32s-14.4 32-32 32zM544 128v256c0 17.7-14.3 32-32 32s-32-14.3-32-32V128c0-17.7 14.3-32 32-32s32 14.3 32 32zM544 640v256c0 17.7-14.3 32-32 32s-32-14.3-32-32V640c0-17.7 14.3-32 32-32s32 14.3 32 32zM928 640v256c0 17.7-14.3 32-32 32s-32-14.3-32-32V640c0-17.7 14.3-32 32-32s32 14.3 32 32zM800 768v128c0 17.7-14.3 32-32 32s-32-14.3-32-32V768c0-17.7 14.3-32 32-32s32 14.3 32 32zM800 640v32c0 17.7-14.3 32-32 32s-32-14.3-32-32v-32c0-17.7 14.3-32 32-32s32 14.3 32 32zM672 736v160c0 17.7-14.3 32-32 32s-32-14.3-32-32V736c0-17.7 14.3-32 32-32s32 14.3 32 32z"
    p-id="2505"></path>
</svg>
