<svg class="icon" viewBox="0 0 1024 1024" xmlns="http://www.w3.org/2000/svg" width="200" height="200">
  <defs>
    <style/>
  </defs>
  <path
    d="M958.359 286.941c0-64.308-52.132-116.44-116.441-116.44H181.454c-64.309 0-116.441 52.132-116.441 116.44v448.64c0 64.309 52.132 116.441 116.44 116.441h660.465c64.309 0 116.441-52.132 116.441-116.44v-448.64zm-114.545-74.485c12.06 0 23.445 3.466 33.52 8.599L530.749 549.348c-1.228 1.161-1.156.916-1.753 1.868-1.426 1.067-6.056 3.922-15.45 3.922-9.397 0-14.025-2.754-15.45-3.818-.677-1.078-.663-.717-1.996-1.94L142.977 224.966c11.61-7.557 25.446-12.51 40.301-12.51h660.536zm72.59 524.029c0 40.857-31.731 73.583-72.59 73.583H183.277c-40.858 0-75.285-32.726-75.285-73.583V287.658c0-10.63 2.86-20.736 6.909-29.883l351.486 322.097c4.912 5.303 19.48 17.676 47.01 17.676 27.799 0 42.303-12.618 47.076-17.83l346.8-328.9c6.252 10.86 9.13 23.434 9.13 36.838v448.829z"/>
</svg>
