<?xml version="1.0" standalone="no"?><!DOCTYPE svg PUBLIC "-//W3C//DTD SVG 1.1//EN"
  "http://www.w3.org/Graphics/SVG/1.1/DTD/svg11.dtd">
<svg t="1548052691369" class="icon" style="" viewBox="0 0 1024 1024" version="1.1" xmlns="http://www.w3.org/2000/svg"
     p-id="8527" xmlns:xlink="http://www.w3.org/1999/xlink" width="200" height="200">
  <defs>
    <style type="text/css"></style>
  </defs>
  <path
    d="M938.67008 682.67008h-85.34016v-85.34016A85.42208 85.42208 0 0 0 768 512H540.44672V398.22336h170.65984a85.42208 85.42208 0 0 0 85.32992-85.32992V85.32992A85.42208 85.42208 0 0 0 711.10656 0H312.89344a85.42208 85.42208 0 0 0-85.32992 85.32992v227.56352a85.42208 85.42208 0 0 0 85.32992 85.32992h170.65984V512H256a85.42208 85.42208 0 0 0-85.32992 85.32992v85.32992H85.32992A85.42208 85.42208 0 0 0 0 768v170.67008A85.42208 85.42208 0 0 0 85.32992 1024h284.44672a85.42208 85.42208 0 0 0 85.32992-85.32992V768a85.42208 85.42208 0 0 0-85.32992-85.32992H227.55328v-85.34016A28.4672 28.4672 0 0 1 256 568.89344h512a28.4672 28.4672 0 0 1 28.44672 28.44672v85.32992H654.22336A85.42208 85.42208 0 0 0 568.89344 768v170.67008a85.42208 85.42208 0 0 0 85.32992 85.32992h284.44672a85.42208 85.42208 0 0 0 85.32992-85.32992V768a85.42208 85.42208 0 0 0-85.32992-85.32992zM284.44672 312.89344V85.32992a28.4672 28.4672 0 0 1 28.44672-28.44672h398.21312a28.4672 28.4672 0 0 1 28.44672 28.44672v227.56352a28.4672 28.4672 0 0 1-28.44672 28.44672H312.89344a28.4672 28.4672 0 0 1-28.44672-28.44672zM398.22336 768v170.67008a28.4672 28.4672 0 0 1-28.44672 28.44672H85.32992a28.4672 28.4672 0 0 1-28.44672-28.44672V768a28.4672 28.4672 0 0 1 28.44672-28.44672h284.44672A28.4672 28.4672 0 0 1 398.22336 768z m568.8832 170.67008a28.4672 28.4672 0 0 1-28.44672 28.44672H654.22336a28.4672 28.4672 0 0 1-28.44672-28.44672V768a28.4672 28.4672 0 0 1 28.44672-28.44672h284.44672A28.4672 28.4672 0 0 1 967.10656 768z"
    p-id="8528"></path>
</svg>
