<?xml version="1.0" standalone="no"?><!DOCTYPE svg PUBLIC "-//W3C//DTD SVG 1.1//EN"
  "http://www.w3.org/Graphics/SVG/1.1/DTD/svg11.dtd">
<svg t="1562121239491" class="icon" viewBox="0 0 1068 1024" version="1.1" xmlns="http://www.w3.org/2000/svg" p-id="7614"
     xmlns:xlink="http://www.w3.org/1999/xlink" width="208.59375" height="200">
  <defs>
    <style type="text/css"></style>
  </defs>
  <path
    d="M713.728 0l125.929739 125.929739v62.953739l-125.929739 125.929739-204.621913-173.145043L650.774261 0h62.953739z m-267.575652 204.621913l204.621913 173.167304-346.290087 368.550957h-31.499131l-157.384347-125.929739v-62.953739l330.551652-352.834783zM84.101565 683.364174l141.668174 110.191304L21.147826 850.009043l62.953739-166.644869zM422.956522 747.653565c0-24.598261 20.034783-44.521739 44.365913-44.521739h556.833391c24.486957 0 44.365913 19.767652 44.365913 44.521739 0 24.576-20.034783 44.521739-44.365913 44.521739H467.322435c-24.486957 0-44.365913-19.767652-44.365913-44.521739z m-422.956522 222.608696a44.521739 44.521739 0 0 1 44.544-44.521739H1024a44.521739 44.521739 0 1 1 0 89.043478H44.521739a44.432696 44.432696 0 0 1-44.544-44.521739z"
    p-id="7615"></path>
</svg>
