<svg class="icon" viewBox="0 0 1024 1024" xmlns="http://www.w3.org/2000/svg" width="200" height="200">
  <defs>
    <style/>
  </defs>
  <path
    d="M993.89 704.576l-41.045 12.788c1.18 8.866 2.456 17.509 2.456 26.662 0 9.057-1.435 17.859-2.806 26.533l41.395 12.884c9.695 2.807 17.859 9.376 22.579 18.242 4.688 8.866 5.644 19.263 2.423 28.83-6.665 19.709-28.574 30.36-49.08 24.046l-41.874-12.98a207.39 207.39 0 0 1-32.178 43.277l25.545 33.741a36.388 36.388 0 0 1-8.61 52.174 39.896 39.896 0 0 1-54.44-8.228l-25.672-33.9a218.01 218.01 0 0 1-52.748 17.094v41.14c0 20.601-17.477 37.408-38.94 37.408-21.558 0-39.003-16.711-39.003-37.409v-41.14a217.818 217.818 0 0 1-52.78-17.093l-25.609 33.9a40.183 40.183 0 0 1-54.47 8.228 36.165 36.165 0 0 1-8.579-52.174l25.8-34.06a201.139 201.139 0 0 1-33.294-42.703l-40.917 12.789c-20.602 6.442-42.511-4.337-49.113-24.046a36.93 36.93 0 0 1 24.971-47.072l41.076-12.724c-1.148-8.834-2.52-17.605-2.52-26.694 0-9.184 1.5-17.859 2.84-26.66l-41.428-12.821c-20.57-6.442-31.668-27.49-24.97-47.136 6.6-19.613 28.51-30.296 49.112-24.014l41.841 13.044a211.057 211.057 0 0 1 32.179-43.372l-25.513-33.646a36.452 36.452 0 0 1 8.579-52.206 39.96 39.96 0 0 1 54.47 8.292l25.64 33.9a214.47 214.47 0 0 1 52.749-17.125v-41.14c0-20.634 17.413-37.409 39.003-37.409 21.495 0 38.971 16.647 38.971 37.409v41.076a216.734 216.734 0 0 1 52.717 17.157l25.672-33.932a40.12 40.12 0 0 1 54.439-8.292c17.349 12.183 21.271 35.495 8.643 52.238l-25.832 34.028c12.724 12.916 24.365 26.98 33.358 42.607l40.885-12.66c20.538-6.315 42.415 4.4 49.08 24.077 6.761 19.614-4.528 40.662-25.002 47.072zM740.99 613.303c-75.327 0-136.463 58.616-136.463 130.818 0 72.266 61.136 130.755 136.463 130.755 75.232 0 136.4-58.489 136.4-130.755 0-72.202-61.073-130.818-136.4-130.818z"/>
  <path
    d="M441.69 895.67H99.529a49.75 49.75 0 0 1-49.782-49.783V99.597c0-27.459 22.292-49.783 49.782-49.783h447.819v223.91a99.533 99.533 0 0 0 99.533 99.533h199.002v36.451a322.103 322.103 0 0 1 49.782 32.02V348.38l-8.802-8.77 1.53-8.802L581.343.096H99.56A99.533 99.533 0 0 0 .027 99.629V845.95a99.533 99.533 0 0 0 99.533 99.533h390.446a322.964 322.964 0 0 1-48.315-49.814z"/>
  <path
    d="M597.13 91.146l217.817 232.328H646.88a49.75 49.75 0 0 1-49.783-49.75V91.146h.032zM174.185 423.007H422.97v-49.75H174.186v49.75zM422.97 223.941H174.186v49.783H422.97V223.94zM174.186 744.058H422.97v-49.751H174.186v49.75zm339.93-199.034h-339.93v49.75h339.93v-49.75z"/>
</svg>
