<?xml version="1.0" standalone="no"?><!DOCTYPE svg PUBLIC "-//W3C//DTD SVG 1.1//EN"
  "http://www.w3.org/Graphics/SVG/1.1/DTD/svg11.dtd">
<svg t="1562326373472" class="icon" viewBox="0 0 1024 1024" version="1.1" xmlns="http://www.w3.org/2000/svg" p-id="2535"
     xmlns:xlink="http://www.w3.org/1999/xlink" width="200" height="200">
  <defs>
    <style type="text/css"></style>
  </defs>
  <path
    d="M511.999392 98.38739C283.623637 98.38739 97.817549 284.193479 97.817549 512.57045c0 228.375755 185.806089 414.181843 414.181843 414.181843 228.376971 0 414.18306-185.806089 414.183059-414.181843 0-228.376971-185.806089-414.18306-414.183059-414.18306z m0 768.026151c-195.098704 0-353.83701-158.744387-353.83701-353.843091 0-195.09992 158.738305-353.838226 353.83701-353.838226 195.09992 0 353.843091 158.738305 353.843091 353.838226 0 195.098704-158.743171 353.843091-353.843091 353.843091z"
    p-id="2536"></path>
  <path
    d="M496.918353 593.107261h-80.539244c-11.089107 0-20.106836 9.070031-20.106836 20.109268 0 11.090323 9.070031 20.109268 20.106836 20.109269h80.539244c11.091539 0 20.110485-9.068814 20.110484-20.109269 0-11.039238-9.070031-20.109268-20.110484-20.109268zM612.698989 391.816318H411.353312c-11.091539 0-20.108052 9.071247-20.108052 20.108052-0.053518 11.039238 9.016513 20.108052 20.108052 20.108052h201.345677c11.089107 0 20.108052-9.070031 20.108052-20.108052 0.001216-11.091539-9.070031-20.108052-20.108052-20.108052zM612.698989 492.462398H411.353312c-11.091539 0-20.108052 9.070031-20.108052 20.108052-0.053518 11.091539 9.016513 20.108052 20.108052 20.108052h201.345677c11.089107 0 20.108052-9.070031 20.108052-20.108052 0.001216-11.092756-9.070031-20.108052-20.108052-20.108052z"
    p-id="2537"></path>
  <path
    d="M632.808258 281.063911H391.192959c-55.505132 0-100.64608 45.140947-100.64608 100.64608v261.722134c0 55.506349 45.140947 100.64608 100.64608 100.64608h232.337279l109.922883-109.922883v-252.445331c0-55.506349-45.140947-100.64608-100.644863-100.64608zM611.81838 698.833871v-55.402962c0-11.091539 9.016513-20.106836 20.108052-20.106836h55.401746l-75.509798 75.509798z m81.365119-115.77942h-61.205982c-33.32327 0-60.377674 27.105489-60.377674 60.377674v60.377674h-180.354583c-33.375572 0.053518-60.429975-27.051971-60.429975-60.377674V381.708774c0-33.322054 27.105489-60.376458 60.376457-60.376457h241.615299c33.324487 0 60.376458 27.105489 60.376458 60.376457v201.345677z"
    p-id="2538"></path>
</svg>
