<?xml version="1.0" standalone="no"?><!DOCTYPE svg PUBLIC "-//W3C//DTD SVG 1.1//EN" "http://www.w3.org/Graphics/SVG/1.1/DTD/svg11.dtd"><svg t="1626575467317" class="icon" viewBox="0 0 1024 1024" version="1.1" xmlns="http://www.w3.org/2000/svg" p-id="1696" xmlns:xlink="http://www.w3.org/1999/xlink" width="64" height="64"><defs><style type="text/css"></style></defs><path d="M511.297 71.14L124.578 194.188v395.157c0 203.203 386.719 368.437 386.719 368.437s386.719-165.234 386.719-368.437V194.187L511.296 71.141z m322.031 517.5c0 31.641-15.469 66.798-45.703 104.063-28.125 34.453-68.203 69.61-118.828 104.766-61.172 42.187-123.75 74.531-157.5 90.703-33.75-16.172-96.328-48.516-157.5-90.703-50.625-35.157-90.703-70.313-118.828-104.766-30.235-37.265-45.703-71.719-45.703-104.062V239.188l322.03-101.954 322.032 101.953v349.454z" fill="#909399" p-id="1697"></path><path d="M384.734 355.203c0 57.656 39.375 108.281 94.922 122.344V755.28c0 17.578 14.063 30.938 30.938 30.938s30.937-14.063 30.937-30.938v-82.968h54.14c17.579 0 30.938-14.063 30.938-30.938 0-17.578-14.062-30.938-30.937-30.938h-54.14v-132.89c67.5-17.578 108.28-85.781 90.702-153.281-16.172-68.204-85.078-108.985-152.578-91.407-55.547 14.063-94.922 64.688-94.922 122.344z m189.844 0c0 35.156-28.828 63.985-63.984 63.985s-63.985-28.829-63.985-63.985 28.829-63.984 63.985-63.984c35.86 0 63.984 28.828 63.984 63.984z" fill="#909399" p-id="1698"></path></svg>
