<?xml version="1.0" standalone="no"?><!DOCTYPE svg PUBLIC "-//W3C//DTD SVG 1.1//EN"
  "http://www.w3.org/Graphics/SVG/1.1/DTD/svg11.dtd">
<svg t="1547524653157" class="icon" style="" viewBox="0 0 1024 1024" version="1.1" xmlns="http://www.w3.org/2000/svg"
     p-id="2644" xmlns:xlink="http://www.w3.org/1999/xlink" width="200" height="200">
  <defs>
    <style type="text/css"></style>
  </defs>
  <path
    d="M966.632727 253.602909c-18.850909 0-34.117818 15.266909-34.117818 34.094546v537.94909H602.926545A123.136 123.136 0 0 0 512 866.048a123.182545 123.182545 0 0 0-90.926545-40.401455H91.485091V287.697455a34.117818 34.117818 0 0 0-68.189091 0v549.632c0 32.209455 25.460364 58.414545 56.785455 58.414545h340.992c24.273455 0 45.009455 15.709091 53.154909 37.748364 4.677818 12.660364 17.175273 20.689455 30.673454 20.689454h14.196364c13.498182 0 25.995636-8.029091 30.673454-20.689454 8.145455-22.039273 28.881455-37.748364 53.154909-37.748364h340.968728c31.348364 0 56.832-26.205091 56.832-58.414545V287.697455c0-18.827636-15.266909-34.094545-34.094546-34.094546zM221.230545 139.938909h199.84291c31.325091 0 56.832 21.573818 56.832 48.104727v493.614546a130.443636 130.443636 0 0 0-56.832-12.8H221.230545V139.938909zM475.694545 775.168l2.21091 24.413091h68.18909l2.187637-24.413091c6.609455-21.317818 29.090909-36.212364 54.644363-36.212364h268.055273v-216.133818a34.117818 34.117818 0 0 0-68.189091 0v146.036364h-199.866182c-20.386909 0-39.726545 4.538182-56.832 12.8V188.043636c0-26.530909 25.483636-48.104727 56.832-48.104727h199.84291v244.875636a34.094545 34.094545 0 0 0 68.212363 0V116.363636a46.545455 46.545455 0 0 0-46.545454-46.545454h-221.509819c-35.84 0-68.119273 14.405818-90.926545 37.329454A128 128 0 0 0 421.073455 69.818182H199.563636a46.545455 46.545455 0 0 0-46.545454 46.545454v622.592h268.055273c25.553455 0 48.034909 14.894545 54.62109 36.212364z"
    p-id="2645"></path>
</svg>
