<?xml version="1.0" standalone="no"?><!DOCTYPE svg PUBLIC "-//W3C//DTD SVG 1.1//EN"
  "http://www.w3.org/Graphics/SVG/1.1/DTD/svg11.dtd">
<svg t="1561961909620" class="icon" viewBox="0 0 1024 1024" version="1.1" xmlns="http://www.w3.org/2000/svg" p-id="1765"
     xmlns:xlink="http://www.w3.org/1999/xlink" width="200" height="200">
  <defs>
    <style type="text/css"></style>
  </defs>
  <path
    d="M877.909 302.285c-28.763 0-52.065 23.301-52.065 52.065 0 7.282 1.456 14.199 4.127 20.511l-169.665 70.39-119.299-204.982c13.593-9.467 22.452-25.122 22.452-42.841 0-28.763-23.301-52.065-52.065-52.065s-52.065 23.301-52.065 52.065c0 17.598 8.738 33.132 22.087 42.598l-132.406 205.104-154.738-69.298c2.913-6.554 4.611-13.714 4.611-21.36 0-28.763-23.301-52.065-52.065-52.065s-52.307 23.18-52.307 51.943c0 28.399 22.695 51.458 50.973 52.065l80.706 347.948c3.035 13.229 14.806 22.574 28.399 22.574h513.244c13.593 0 25.364-9.345 28.399-22.574l80.828-347.948h0.85c28.763 0 52.065-23.301 52.065-52.065s-23.301-52.065-52.065-52.065zM744.774 718.681h-467.005l-62.501-269.548 132.65 59.468c13.107 5.825 28.641 1.334 36.409-10.801l125.732-194.909 112.746 193.695c7.282 12.622 22.816 17.84 36.287 12.257l148.79-61.774-63.109 271.611zM762.371 819.655l-502.201 0.122c-16.142 0-29.127 12.986-29.127 29.127s12.986 29.127 29.127 29.127l502.201-0.122c16.142 0 29.127-12.986 29.127-29.127s-12.986-29.127-29.127-29.127z"
    fill="" p-id="1766"></path>
</svg>
