<svg class="icon" viewBox="0 0 1024 1024" xmlns="http://www.w3.org/2000/svg" width="200" height="200">
  <defs>
    <style/>
  </defs>
  <path
    d="M512 922.11h-.006a20.912 20.912 0 0 1-14.841-6.186L370.833 788.53c-1.613-1.623-164.172-165.007-187.469-188.305C114.597 531.46 74.21 454.29 66.567 377.058c-7.61-76.903 18.981-150.036 74.874-205.93 54.794-54.792 121.563-77.752 193.073-66.412 59.33 9.412 120.361 42.177 177.486 95.104 57.123-52.926 118.155-85.69 177.485-95.104 71.514-11.352 138.28 11.617 193.073 66.413 55.892 55.893 82.482 129.026 74.874 205.929-7.643 77.23-48.03 154.4-116.797 223.167-50.87 50.869-311.172 313.064-313.796 315.706A20.9 20.9 0 0 1 512 922.11zM298.928 143.68c-47.08 0-89.999 19.103-127.914 57.02-47.548 47.548-69.275 107.107-62.83 172.239 6.68 67.496 42.902 135.863 104.752 197.714 23.334 23.334 185.93 186.758 187.569 188.406L512.01 871.51c56.27-56.672 255.225-257.03 299.053-300.858 61.851-61.85 98.074-130.217 104.751-197.714 6.447-65.132-15.28-124.691-62.829-172.239-45.574-45.575-98.378-63.974-156.947-54.68-55.708 8.838-114.235 42.59-169.252 97.609a20.912 20.912 0 0 1-29.572.001c-55.02-55.02-113.546-88.773-169.253-97.61-9.842-1.56-19.523-2.34-29.033-2.34z"/>
</svg>
