<?xml version="1.0" standalone="no"?><!DOCTYPE svg PUBLIC "-//W3C//DTD SVG 1.1//EN"
  "http://www.w3.org/Graphics/SVG/1.1/DTD/svg11.dtd">
<svg t="1548752335007" class="icon" style="" viewBox="0 0 1024 1024" version="1.1" xmlns="http://www.w3.org/2000/svg"
     p-id="3987" xmlns:xlink="http://www.w3.org/1999/xlink" width="200" height="200">
  <defs>
    <style type="text/css"></style>
  </defs>
  <path
    d="M1023.786667 611.84c-0.426667 9.770667-13.354667 20.693333-39.893334 34.56-54.613333 28.458667-337.749333 144.896-397.994666 176.298667-60.288 31.402667-93.738667 31.104-141.354667 8.32-47.616-22.741333-348.842667-144.469333-403.114667-170.368-27.093333-12.970667-40.917333-23.893333-41.386666-34.218667v103.509333c0 10.325333 14.250667 21.290667 41.386666 34.261334 54.272 25.941333 355.541333 147.626667 403.114667 170.368 47.616 22.784 81.066667 23.082667 141.354667-8.362667 60.245333-31.402667 343.338667-147.797333 397.994666-176.298667 27.776-14.464 40.106667-25.728 40.106667-35.925333v-102.058667l-0.213333-0.085333z"
    fill="" p-id="3988"></path>
  <path
    d="M1023.744 443.093333c-0.426667 9.770667-13.354667 20.650667-39.850667 34.517334-54.613333 28.458667-337.749333 144.896-397.994666 176.298666-60.288 31.402667-93.738667 31.104-141.354667 8.362667-47.616-22.741333-348.842667-144.469333-403.114667-170.410667-27.093333-12.928-40.917333-23.893333-41.386666-34.176v103.509334c0 10.325333 14.250667 21.248 41.386666 34.218666 54.272 25.941333 355.498667 147.626667 403.114667 170.368 47.616 22.784 81.066667 23.082667 141.354667-8.32 60.245333-31.402667 343.338667-147.84 397.994666-176.298666 27.776-14.506667 40.106667-25.770667 40.106667-35.968v-102.058667l-0.256-0.042667z"
    fill="" p-id="3989"></path>
  <path
    d="M1023.744 268.074667c0.512-10.410667-13.098667-19.541333-40.490667-29.610667-53.248-19.498667-334.634667-131.498667-388.522666-151.253333-53.888-19.712-75.818667-18.901333-139.093334 3.84C392.234667 113.706667 92.629333 231.253333 39.338667 252.074667c-26.666667 10.496-39.68 20.181333-39.253334 30.506666V386.133333c0 10.325333 14.250667 21.248 41.386667 34.218667 54.272 25.941333 355.498667 147.669333 403.114667 170.410667 47.616 22.741333 81.066667 23.04 141.354666-8.362667 60.245333-31.402667 343.338667-147.84 397.994667-176.298667 27.776-14.506667 40.106667-25.770667 40.106667-35.968V268.074667h-0.341334zM366.72 366.08l237.269333-36.437333-71.68 105.088-165.546666-68.650667z m524.8-94.634667l-140.330667 55.466667-15.232 5.973333-140.245333-55.466666 155.392-61.44 140.373333 55.466666z m-411.989333-101.674666l-22.954667-42.325334 71.594667 27.989334 67.498666-22.101334-18.261333 43.733334 68.778667 25.770666-88.704 9.216-19.882667 47.786667-32.085333-53.290667-102.4-9.216 76.416-27.562666z m-176.768 59.733333c70.058667 0 126.805333 21.973333 126.805333 49.109333s-56.746667 49.152-126.805333 49.152-126.848-22.058667-126.848-49.152c0-27.136 56.789333-49.152 126.848-49.152z"
    fill="" p-id="3990"></path>
</svg>
