<?xml version="1.0" standalone="no"?><!DOCTYPE svg PUBLIC "-//W3C//DTD SVG 1.1//EN"
  "http://www.w3.org/Graphics/SVG/1.1/DTD/svg11.dtd">
<svg t="1547793069032" class="icon" style="" viewBox="0 0 1024 1024" version="1.1" xmlns="http://www.w3.org/2000/svg"
     p-id="4453" xmlns:xlink="http://www.w3.org/1999/xlink" width="200" height="200">
  <defs>
    <style type="text/css"></style>
  </defs>
  <path
    d="M121.57287 789.224906 121.57287 177.343057 64.140833 177.343057l0 669.303652 28.716019 0 0 0.011256 867.002316 0 0-57.432037L121.57287 789.225929zM679.325913 400.454508 561.148373 400.454508l0 330.234213L679.325913 730.688721 679.325913 400.454508zM844.995093 234.785328 726.817554 234.785328l0 495.903393 118.17754 0L844.995093 234.785328zM513.656733 292.217365 395.479193 292.217365l0 438.471356 118.17754 0L513.656733 292.217365zM345.778234 505.378186 227.600695 505.378186l0 225.310535 118.17754 0L345.778234 505.378186z"
    p-id="4454"></path>
</svg>
