<?xml version="1.0" standalone="no"?><!DOCTYPE svg PUBLIC "-//W3C//DTD SVG 1.1//EN"
  "http://www.w3.org/Graphics/SVG/1.1/DTD/svg11.dtd">
<svg t="1585566252814" class="icon" viewBox="0 0 1024 1024" version="1.1" xmlns="http://www.w3.org/2000/svg" p-id="2695"
     xmlns:xlink="http://www.w3.org/1999/xlink" width="200" height="200">
  <defs>
    <style type="text/css"></style>
  </defs>
  <path
    d="M726.81984 0.0768H90.43968A90.4448 90.4448 0 0 0 0 90.51136v842.99776a90.4448 90.4448 0 0 0 90.44992 90.43456h843.12064A90.4448 90.4448 0 0 0 1024 933.50912V297.216z m245.51424 318.55616v2.01216h-201.89696a64.68096 64.68096 0 0 1-64.60928-64.59904V52.15232zM933.56544 972.288H90.43968a38.81472 38.81472 0 0 1-38.76352-38.76864V90.51136a38.8096 38.8096 0 0 1 38.76352-38.76352h563.712v204.288a116.42368 116.42368 0 0 0 116.28544 116.29056h201.89696v561.18272a38.81472 38.81472 0 0 1-38.76864 38.77888z m-262.144-501.51936L454.19008 345.3696a82.5088 82.5088 0 0 0-41.18528-12.16c-29.696 0-59.62752 21.75488-59.62752 70.35392V654.336c0 48.59904 29.952 70.35392 59.62752 70.35392a82.49344 82.49344 0 0 0 41.18528-12.16l217.21088-125.40416c24.79616-14.29504 39.01952-35.5072 39.01952-58.18368s-14.21824-43.87328-39.0144-58.18368z m-21.67808 78.848l-217.22624 125.3888a39.76704 39.76704 0 0 1-19.5072 6.3488c-14.16192 0-16.27648-16.896-16.27648-27.008V403.56352c0-10.09152 2.11456-27.008 16.27648-27.008a39.73632 39.73632 0 0 1 19.5072 6.3488l217.21088 125.3888c10.86464 6.272 17.34656 13.98784 17.34656 20.6592s-6.48192 14.37696-17.34656 20.64896zM92.24192 113.00864h85.30944V198.2976H92.24192V113.00864z m0 173.568h85.30944v85.26336H92.24192V286.55616z m0 173.568h85.30944v85.28896H92.24192V460.09856z m0 173.568h85.30944v85.28384H92.24192v-85.3504z m0 173.5424h85.30944v85.28896H92.24192v-85.35552z m735.70304-347.15648h85.30432v85.28896h-85.30432V460.09856z m0 173.568h85.30432v85.28384h-85.30432v-85.30432z m0 173.5424h85.30432v85.28896h-85.30432v-85.30944z"
    p-id="2696"></path>
</svg>
