<?xml version="1.0" standalone="no"?><!DOCTYPE svg PUBLIC "-//W3C//DTD SVG 1.1//EN"
  "http://www.w3.org/Graphics/SVG/1.1/DTD/svg11.dtd">
<svg t="1562144309707" class="icon" viewBox="0 0 1024 1024" version="1.1" xmlns="http://www.w3.org/2000/svg" p-id="2222"
     xmlns:xlink="http://www.w3.org/1999/xlink" width="200" height="200">
  <defs>
    <style type="text/css"></style>
  </defs>
  <path
    d="M46.248 420.11c-8.17 11.766-15.287 22.83-21.136 32.833-18.6 31.744-20.997 46.504-20.997 55.842v210.708c0 36.601 29.77 66.371 66.371 66.371h36.71c12.262 57.708 64.223 100.33 123.864 100.33 59.648 0 111.576-42.621 123.832-100.33h16.632c14.654 0 28.642-4.757 40.124-13.53 11.52 8.773 25.507 13.53 40.161 13.53h177.168c12.264 57.708 64.191 100.33 123.87 100.33 59.643 0 111.57-42.621 123.834-100.33h76.833c36.601 0 66.371-29.77 66.371-66.371v-521.75c0-36.603-29.77-66.373-66.371-66.373H451.777c-36.608 0-66.372 29.77-66.372 66.373v75.602a65.786 65.786 0 0 0-13.917-1.478H200.904c-11.057 0-26.7 4.086-58.76 34.35-13.849 13.068-29.701 30.013-45.87 49.037l-0.172 0.209-12.154 14.305h0.28c-0.528 0.634-1.022 1.269-1.549 1.903-13.003 16.066-25.577 32.833-36.43 48.438 0.037-0.033 0.037 0 0 0z m706.563 413.629c-40.866 0-74.126-33.254-74.126-74.123 0-40.865 33.259-74.12 74.126-74.12 40.864 0 74.086 33.255 74.086 74.12 0 40.87-33.222 74.123-74.086 74.123z m-314.914-495.5V197.744c0-7.682 6.235-13.917 13.912-13.917h501.705c7.682 0 13.917 6.235 13.917 13.917v521.78c0 7.682-6.235 13.917-13.917 13.917H876.61c-11.945-56.893-61.266-98.572-120.063-100.298h-6.207c-0.032-0.037-0.14 0-0.242 0H749.287v-0.037h-0.386c-58.73 1.833-107.98 43.478-119.925 100.299H451.81c-7.676 0-13.912-6.235-13.912-13.912V338.24zM231.03 833.74c-40.833 0-74.125-33.254-74.125-74.123 0-40.865 33.258-74.12 74.125-74.12 40.864 0 74.123 33.255 74.123 74.12 0.001 40.87-33.259 74.123-74.123 74.123zM56.467 719.492V565.146h194.5c36.603 0 66.372-29.764 66.372-66.371V418.49c0-36.602-29.77-66.371-66.372-66.371H170.08c1.376-1.339 2.677-2.646 4.015-3.947 17.863-17.406 26.491-22.513 29.205-23.851h168.116c7.682 0 13.918 6.237 13.918 13.918v381.075c0 7.682-6.237 13.917-13.918 13.917H354.79c-11.45-53.87-57.775-95.191-113.086-99.88-0.424-0.032-0.81-0.032-1.198-0.07h-0.145v0.209h-0.033v-0.209h-0.14v0.178l-0.14-0.178v0.14h-0.037v-0.14l-0.178 0.108h-0.031v-0.108h-0.147v0.07l-0.877-0.14H234.833l-0.178-0.036v0.076l-0.139-0.076v0.107h-0.039l-0.139-0.107v0.144-0.144l-0.177 0.144-0.14-0.144v0.144h-0.037l-0.14-0.107v0.07h-0.032v-0.07l-0.178 0.07v-0.031h-5.074c-0.108-0.04-0.211 0-0.28 0H227.36v-0.076 0.076h-0.35c-0.039 0.031-0.07 0.031-0.107 0.031v-0.14 0.14h-0.04c-0.03 0.037-0.07 0.037-0.1 0.037H225.11c-0.215 0.033-0.495 0.033-0.742 0.033H223.238c-0.279 0.037-0.595 0.07-0.875 0.139-0.075 0.039-0.145 0.039-0.177 0.039-0.07 0-0.107 0.037-0.178 0.037-0.07 0-0.107 0.032-0.178 0.032s-0.102 0.037-0.172 0.037c-0.075 0-0.107 0.032-0.177 0.032v-0.247c-55.841 4.192-102.732 45.73-114.285 99.98H70.524c-7.682 0-13.917-6.234-13.917-13.911h-0.14z m0.102-206.83v-3.56c0.177-1.198 1.973-10.36 17.053-35.054l3.525-5.672-7.256-4.617 7.396 4.37-3.311-2.22 3.559 1.904c7.676-12.085 17.222-25.755 27.582-39.597 0.069-0.108 0.14-0.215 0.215-0.285a793.303 793.303 0 0 1 18.246-23.388h127.53c7.682 0 13.918 6.237 13.918 13.912v80.29c0 7.681-6.235 13.917-13.919 13.917H56.57z m0.038 0"
    fill="" p-id="2223"></path>
</svg>
