<?xml version="1.0" standalone="no"?><!DOCTYPE svg PUBLIC "-//W3C//DTD SVG 1.1//EN"
  "http://www.w3.org/Graphics/SVG/1.1/DTD/svg11.dtd">
<svg t="1551848156169" class="icon" style="" viewBox="0 0 1024 1024" version="1.1" xmlns="http://www.w3.org/2000/svg"
     p-id="3648" xmlns:xlink="http://www.w3.org/1999/xlink" width="200" height="200">
  <defs>
    <style type="text/css"></style>
  </defs>
  <path
    d="M606.345 546.968l-78.19 78.707-125.113-125.933 72.983-73.46-36.491-36.732-72.979 73.46-72.979-73.46-88.62 89.205c-86.557 85.94-95.52 223.493-20.85 320.079L64.212 924.767l36.491 36.727 119.895-120.685c41.699 36.732 93.828 52.472 145.957 52.472 62.553 0 125.107-26.234 172.023-73.46l88.617-89.201-67.767-68.213 78.191-78.711-31.274-36.728zM502.088 777.842c-36.487 36.733-83.403 57.72-130.319 57.72-46.916 0-93.833-15.741-125.108-52.469l-5.213-5.252c-67.766-68.213-67.766-183.648 5.213-257.113l46.916-47.221L549.004 730.62l-46.916 47.222z m458.729-676.887l-36.491-36.732-114.682 110.192c-41.705-36.732-93.828-52.472-145.957-52.472-62.553 0-125.108 26.233-172.024 73.459l-88.62 83.954 338.836 341.071 83.403-83.953c86.562-85.945 95.523-223.498 20.854-320.085l114.681-115.434z m-177.236 393.54l-41.704 41.98-255.426-257.118 41.704-41.974c36.487-36.733 83.403-57.72 130.319-57.72 46.912 0 93.828 15.74 125.108 52.473l5.212 5.247c72.978 68.213 67.766 183.652-5.213 257.112z m0 0"
    p-id="3649"></path>
</svg>
