<?xml version="1.0" standalone="no"?><!DOCTYPE svg PUBLIC "-//W3C//DTD SVG 1.1//EN"
  "http://www.w3.org/Graphics/SVG/1.1/DTD/svg11.dtd">
<svg t="1547793184693" class="icon" style="" viewBox="0 0 1024 1024" version="1.1" xmlns="http://www.w3.org/2000/svg"
     p-id="5152" xmlns:xlink="http://www.w3.org/1999/xlink" width="200" height="200">
  <defs>
    <style type="text/css"></style>
  </defs>
  <path
    d="M515 98.2L184.5 206.3l1.7 421 0.4 4.6c0.6 2.8 13.3 69.7 76.9 134.1 48.9 49.7 168.8 114.6 220 142.2 8 4.4 14 7.6 17.5 9.6l12.1 6.8 14.9-7.8c29.9-15.1 182-93.4 238.6-150.7 63.7-64.5 76.4-131.4 76.9-134.1l2.1-425.6L515 98.2z m278.1 526.2c-2.4 9.8-16.1 58.3-62.5 105.3-47.1 47.9-179.1 117.4-216.6 136.7-2-1.1-4.1-2.2-6.4-3.4-45-24.3-164.4-89-208-133.2-46.5-47.1-60.1-95.5-62.5-105.3l-1.5-380.8L515 152.2l279.5 91.5-1.4 380.7zM364.6 691H410v-18.2h231V691h45V564.7H364.6V691z m45.5-94.3H641v45.4H410.1v-45.4z m110.5-285.6l9.9 19.9h-102l20.1-40.2-47.1-5.2c-18.6 45.9-46.4 87.5-83.5 125l8.1 27.3 5.1 19.9c6.4-6.5 12.7-13.1 18.9-19.9 6-6.6 11.4-12.8 16.3-18.6v129.8h43.7v-13.4H713v-32H570.7v-29h123.8v-26.8H570.7v-28.6h123.8v-29H570.7v-28.6h135.4V331H580.6c-3.1-7.5-6.8-15.4-11.1-23.6-4.2-8.1-8.8-15.9-13.7-23.6l-45.4 6.9 10.2 20.4z m6.4 192.6H410.1v-29h117l-0.1 29z m0-55.8H410.1v-28.6h117l-0.1 28.6z m0-57.6H410.1v-28.6h117l-0.1 28.6z m0 0"
    p-id="5153"></path>
</svg>
