<?xml version="1.0" standalone="no"?><!DOCTYPE svg PUBLIC "-//W3C//DTD SVG 1.1//EN" "http://www.w3.org/Graphics/SVG/1.1/DTD/svg11.dtd"><svg t="1626576121799" class="icon" viewBox="0 0 1024 1024" version="1.1" xmlns="http://www.w3.org/2000/svg" p-id="8221" xmlns:xlink="http://www.w3.org/1999/xlink" width="64" height="64"><defs><style type="text/css"></style></defs><path d="M226.816 24.576c-121.344 0-220.16 98.816-220.16 220.16s98.816 220.16 220.16 220.16 220.16-98.816 220.16-220.16-98.816-220.16-220.16-220.16z m0 376.32c-86.016 0-156.16-70.144-156.16-156.16s70.144-156.16 156.16-156.16S382.976 158.72 382.976 244.736 312.832 400.896 226.816 400.896zM226.816 567.296c-121.344 0-220.16 98.816-220.16 220.16s98.816 220.16 220.16 220.16 220.16-98.816 220.16-220.16-98.816-220.16-220.16-220.16z m0 376.832c-86.016 0-156.16-70.144-156.16-156.16s70.144-156.16 156.16-156.16 156.16 70.144 156.16 156.16-70.144 156.16-156.16 156.16zM561.152 90.624H1008.64v64h-447.488zM561.152 335.36H1008.64V399.36h-447.488zM561.152 633.344H1008.64v64h-447.488zM561.152 878.08H1008.64V942.08h-447.488z" p-id="8222"></path></svg>
