<?xml version="1.0" standalone="no"?><!DOCTYPE svg PUBLIC "-//W3C//DTD SVG 1.1//EN"
  "http://www.w3.org/Graphics/SVG/1.1/DTD/svg11.dtd">
<svg t="1547793509002" class="icon" style="" viewBox="0 0 1024 1024" version="1.1" xmlns="http://www.w3.org/2000/svg"
     p-id="2619" xmlns:xlink="http://www.w3.org/1999/xlink" width="200" height="200">
  <defs>
    <style type="text/css"></style>
  </defs>
  <path
    d="M435.2 384c-201.216 0-358.4-78.848-358.4-179.2S233.984 25.6 435.2 25.6c200.704 0 358.4 78.848 358.4 179.2s-157.696 179.2-358.4 179.2z m0-307.2c-181.248 0-307.2 67.584-307.2 128s125.952 128 307.2 128 307.2-67.584 307.2-128-125.952-128-307.2-128z"
    p-id="2620"></path>
  <path
    d="M435.2 844.8c-201.216 0-358.4-78.848-358.4-179.2h51.2c0 60.416 125.952 128 307.2 128 25.088 0 50.176-1.536 74.752-4.096l5.632 50.688c-26.624 3.072-53.248 4.608-80.384 4.608z"
    p-id="2621"></path>
  <path
    d="M435.2 691.2c-201.216 0-358.4-78.848-358.4-179.2h51.2c0 60.416 125.952 128 307.2 128a665.6 665.6 0 0 0 78.848-4.608l6.144 50.688c-27.648 3.584-56.32 5.12-84.992 5.12z"
    p-id="2622"></path>
  <path
    d="M435.2 537.6c-201.216 0-358.4-78.848-358.4-179.2h51.2c0 60.416 125.952 128 307.2 128s307.2-67.584 307.2-128h51.2c0 100.352-157.696 179.2-358.4 179.2z"
    p-id="2623"></path>
  <path d="M128 665.6h-51.2V204.8h51.2v460.8z m665.6-161.792h-51.2V204.8h51.2v299.008z" p-id="2624"></path>
  <path
    d="M742.4 998.4c-141.312 0-256-114.688-256-256s114.688-256 256-256 256 114.688 256 256-114.688 256-256 256z m0-460.8c-113.152 0-204.8 91.648-204.8 204.8s91.648 204.8 204.8 204.8 204.8-91.648 204.8-204.8-91.648-204.8-204.8-204.8z"
    p-id="2625"></path>
  <path
    d="M711.168 854.528l-114.176-104.96c-10.24-9.728-11.264-25.6-1.536-36.352 9.728-10.24 25.6-11.264 36.352-1.536l78.848 72.704 141.824-136.704c10.24-9.728 26.112-9.728 36.352 0.512 9.728 10.24 9.728 26.112-0.512 36.352l-177.152 169.984z"
    p-id="2626"></path>
</svg>
