<?xml version="1.0" standalone="no"?><!DOCTYPE svg PUBLIC "-//W3C//DTD SVG 1.1//EN"
  "http://www.w3.org/Graphics/SVG/1.1/DTD/svg11.dtd">
<svg t="1547793046409" class="icon" style="" viewBox="0 0 1024 1024" version="1.1" xmlns="http://www.w3.org/2000/svg"
     p-id="4338" xmlns:xlink="http://www.w3.org/1999/xlink" width="200" height="200">
  <defs>
    <style type="text/css"></style>
  </defs>
  <path
    d="M510.103352 0c-278.269803 0-503.876026 225.574613-503.876026 503.844416 0 278.301414 225.574613 503.876026 503.876026 503.876026 168.517133 0 317.625239-82.820275 409.106872-209.89566-138.644934-42.263629-313.989998-163.111687-313.989998-163.111687-16.026672 35.182812-158.686176 222.034204-357.676113 138.202383s-85.728468-227.123541-85.728468-227.123541c181.698833-170.192505 408.190159-17.923319 408.190159-17.923319 42.516515-22.095944 50.861765-90.754584 52.221029-106.212262l-341.428166 0 0-47.637464 170.192505 0 0-61.103661-199.622152 0 0-47.352967 199.622152 0 0-92.145459 107.824412 0 0 92.145459 215.933321 0 0 47.352967-215.964932 0 0 61.103661 168.580354 0 0 47.637464-12.77076 0c3.761684 55.761437-67.868371 129.920356-67.868371 129.920356 168.864852 97.424461 309.311601 91.79774 348.572205 87.78317 12.012101-43.148731 18.587146-88.510218 18.587146-135.452244 0-278.269803-225.574613-503.844416-503.844416-503.844416zM207.872569 594.377724c0 0-42.232018 42.232018 33.254553 72.926097 0 0 112.755695 74.064086 286.646663-72.926097 0 0-198.357721-136.906341-319.901216 0z"
    p-id="4339"></path>
</svg>
