<?xml version="1.0" standalone="no"?><!DOCTYPE svg PUBLIC "-//W3C//DTD SVG 1.1//EN"
  "http://www.w3.org/Graphics/SVG/1.1/DTD/svg11.dtd">
<svg t="1562326329632" class="icon" viewBox="0 0 1024 1024" version="1.1" xmlns="http://www.w3.org/2000/svg" p-id="2422"
     xmlns:xlink="http://www.w3.org/1999/xlink" width="200" height="200">
  <defs>
    <style type="text/css"></style>
  </defs>
  <path
    d="M835.925 58.027H767.66A56.32 56.32 0 0 0 714.41 92.16a94.208 94.208 0 0 1-88.064 61.44h-227.67a94.208 94.208 0 0 1-88.064-59.733 56.32 56.32 0 0 0-53.248-34.134H189.1A116.736 116.736 0 0 0 71.68 174.763v712.704a116.736 116.736 0 0 0 116.395 116.053h648.533A116.736 116.736 0 0 0 952.32 887.467V174.763A116.736 116.736 0 0 0 835.925 58.027z m77.483 829.44a77.824 77.824 0 0 1-77.824 77.824H187.051a77.824 77.824 0 0 1-76.459-77.824V174.763a77.824 77.824 0 0 1 77.483-77.824h68.266a17.75 17.75 0 0 1 16.726 10.24 133.12 133.12 0 0 0 124.586 86.698H624.3a133.12 133.12 0 0 0 126.634-86.698 17.75 17.75 0 0 1 16.726-10.582h68.266a77.824 77.824 0 0 1 77.824 77.824z"
    p-id="2423"></path>
  <path
    d="M416.768 102.4h190.464a40.96 40.96 0 1 0 0-81.579H416.768a40.96 40.96 0 1 0 0 81.579zM271.36 377.173a30.72 30.72 0 1 0 61.44 0 30.72 30.72 0 1 0-61.44 0zM732.16 356.693H404.48a20.48 20.48 0 1 0 0 40.96h327.68a20.48 20.48 0 1 0 0-40.96zM271.36 571.733a30.72 30.72 0 1 0 61.44 0 30.72 30.72 0 1 0-61.44 0zM732.16 551.253H404.48a20.48 20.48 0 1 0 0 40.96h327.68a20.48 20.48 0 1 0 0-40.96zM271.36 766.293a30.72 30.72 0 1 0 61.44 0 30.72 30.72 0 1 0-61.44 0zM732.16 745.813H404.48a20.48 20.48 0 1 0 0 40.96h327.68a20.48 20.48 0 1 0 0-40.96z"
    p-id="2424"></path>
</svg>
