<?xml version="1.0" standalone="no"?><!DOCTYPE svg PUBLIC "-//W3C//DTD SVG 1.1//EN"
  "http://www.w3.org/Graphics/SVG/1.1/DTD/svg11.dtd">
<svg t="1547793030040" class="icon" style="" viewBox="0 0 1024 1024" version="1.1" xmlns="http://www.w3.org/2000/svg"
     p-id="4223" xmlns:xlink="http://www.w3.org/1999/xlink" width="200" height="200">
  <defs>
    <style type="text/css"></style>
  </defs>
  <path
    d="M510.08 0c-281.728 0-510.08 228.352-510.08 510.048s228.352 510.08 510.08 510.08c281.696 0 510.048-228.32 510.048-510.08s-228.352-510.048-510.048-510.048zM662.976 283.968c-30.144-10.208-10.688-31.136-10.688-31.136 199.008-32.096 145.472 148.864 145.472 148.864-24.32 19.488-30.656-7.296-30.656-7.296 28.224-138.176-104.128-110.432-104.128-110.432zM795.68 647.008c-236.096 295.36-559.616 143.776-559.616 143.776-435.264-247.744 119.52-536.288 119.52-536.288 172.928-68 138.944 107.84 138.944 107.84 282.72-117.568 201.12 96.192 201.12 96.192 191.36 35.936 100.032 188.448 100.032 188.448zM829.856 392.224c42.848-209.824-158.112-167.712-158.112-167.712-45.824-15.52-16.256-47.296-16.256-47.296 302.176-48.768 220.896 226.08 220.896 226.08-36.928 29.568-46.528-11.072-46.528-11.072zM388.608 439.136c-143.904 19.008-250.88 107.904-238.912 198.56s138.336 148.768 282.24 129.792c143.936-19.008 250.88-107.904 238.912-198.592s-138.336-148.768-282.24-129.76zM409.472 731.808c-78.976 14.56-152.352-24.32-163.872-86.816s43.168-124.96 122.176-139.488c79.008-14.56 152.384 24.288 163.872 86.784s-43.168 124.992-122.208 139.52zM402.528 642.816c0 21.824-22.336 39.52-49.856 39.52s-49.856-17.696-49.856-39.52c0-21.824 22.336-39.52 49.856-39.52s49.856 17.696 49.856 39.52zM442.528 593.6c0 10.72-10.944 19.392-24.48 19.392s-24.48-8.672-24.48-19.392c0-10.72 10.944-19.392 24.48-19.392s24.48 8.672 24.48 19.392z"
    p-id="4224"></path>
</svg>
