<svg class="icon" viewBox="0 0 1024 1024" xmlns="http://www.w3.org/2000/svg" width="200" height="200">
  <defs>
    <style/>
  </defs>
  <path
    d="M925.007 706.494c-9.007-8.122-23.22-18.37-42.243-30.457-5.865-3.726-9.318-10.111-9.238-17.079l.032-2.54c.61-51.781 1.53-130.034-12.192-209.543-16.686-96.68-51.422-172.287-103.242-224.72-40.83-41.315-92.435-68.674-154.065-81.819-3.057-19.095-12.198-36.341-26.517-49.57-17.136-15.828-40.166-24.546-64.847-24.546-24.68 0-47.71 8.719-64.845 24.546-14.315 13.222-23.455 30.464-26.515 49.553-61.343 13.07-112.581 40.223-152.973 81.204-117.15 118.867-114.2 322.051-112.615 431.208l.086 5.973c.1 6.964-3.509 13.566-9.417 17.232-19.404 12.038-33.984 22.151-43.335 30.056-24.834 20.994-39.077 51.649-39.077 84.103 0 28.355 23.067 51.422 51.422 51.422h277.24c.54 65.734 54.174 119.045 120.032 119.045S632.19 907.25 632.73 841.517H908.12c29.375 0 53.272-23.898 53.272-53.272-.002-31.103-13.262-60.9-36.385-81.751zM512.694 106.236c14.587 0 27.973 4.945 37.694 13.925 4.254 3.93 7.625 8.439 10.07 13.418-15.392-1.55-31.313-2.334-47.763-2.334-16.396 0-32.257.776-47.587 2.309 8.211-16.448 25.978-27.318 47.586-27.318zm.002 814.31c-43.793 0-79.465-35.364-80.005-79.03H592.7c-.54 43.667-36.213 79.03-80.005 79.03zM908.118 801.5H115.423c-6.29 0-11.407-5.117-11.407-11.406 0-20.653 9.074-40.17 24.896-53.544 7.753-6.553 21.1-15.756 38.6-26.614 17.772-11.026 28.627-30.875 28.33-51.799l-.086-5.986c-1.5-103.307-4.292-295.6 101.105-402.538 51.24-51.99 123.858-78.352 215.833-78.352 92.149 0 165.147 26.586 216.967 79.022 45.959 46.502 77.004 114.937 92.272 203.399 13.098 75.896 12.204 151.944 11.611 202.266l-.03 2.542c-.246 20.923 10.144 40.108 27.789 51.322 16.656 10.584 29.764 19.959 36.906 26.398 14.722 13.277 23.166 32.243 23.166 52.034 0 7.309-5.948 13.256-13.257 13.256z"/>
  <path
    d="M450.672 213.276c-24.2 0-58.362 22.533-82.263 43.62-19.808 17.478-54.382 53.17-63.362 95.837-2.276 10.812 4.644 21.424 15.457 23.698 1.39.293 2.774.434 4.14.434 9.26 0 17.575-6.467 19.558-15.89 4.824-22.911 23.296-49.91 50.682-74.072 26.59-23.462 49.811-33.61 55.788-33.61 11.049 0 20.008-8.958 20.008-20.008 0-11.05-8.96-20.009-20.008-20.009z"/>
</svg>
