<?xml version="1.0" standalone="no"?><!DOCTYPE svg PUBLIC "-//W3C//DTD SVG 1.1//EN"
  "http://www.w3.org/Graphics/SVG/1.1/DTD/svg11.dtd">
<svg t="1617939895655" class="icon" viewBox="0 0 1105 1024" version="1.1" xmlns="http://www.w3.org/2000/svg" p-id="3291"
     xmlns:xlink="http://www.w3.org/1999/xlink" width="215.8203125" height="200">
  <defs>
    <style type="text/css"></style>
  </defs>
  <path
    d="M395.815385 303.419077 490.692923 303.419077C495.655385 319.409231 501.720615 331.539692 517.159385 357.454769L598.803692 497.585231 680.487385 358.006154C695.926154 332.091077 702.542769 318.306462 706.953846 303.419077L802.382769 303.419077C795.214769 312.792615 773.159385 344.221538 763.234462 360.211692L687.104 481.595077 717.981538 481.595077C742.793846 481.595077 757.720615 480.492308 775.916308 477.184L775.916308 540.081231C757.169231 536.772923 742.242462 535.670154 717.981538 535.670154L653.430154 535.670154 635.234462 564.342154 635.234462 580.332308 716.878769 580.332308C741.691077 580.332308 755.515077 579.229538 774.813538 575.921231L774.813538 638.818462C756.066462 635.510154 741.139692 634.407385 716.878769 634.407385L635.234462 634.407385 635.234462 671.940923C635.234462 703.369846 636.337231 720.462769 639.645538 742.557538L558.001231 742.557538C560.758154 721.014154 562.412308 698.958769 562.412308 671.940923L562.412308 634.407385 479.113846 634.407385C454.301538 634.407385 439.926154 635.510154 421.179077 638.818462L421.179077 575.921231C440.477538 579.229538 453.750154 580.332308 479.113846 580.332308L562.412308 580.332308 562.412308 563.790769 544.216615 535.670154 480.216615 535.670154C454.852923 535.670154 441.028923 536.772923 422.281846 540.081231L422.281846 477.184C440.477538 480.492308 454.852923 481.595077 480.216615 481.595077L511.094154 481.595077 434.412308 360.211692C418.422154 335.399385 404.086154 313.895385 395.815385 303.419077ZM591.990154 1024C440.162462 1024 304.167385 957.518769 210.432 852.558769L272.699077 804.076308C351.901538 890.643692 465.447385 945.230769 591.990154 945.230769 831.251692 945.230769 1025.220923 751.261538 1025.220923 512 1025.220923 272.738462 831.251692 78.769231 591.990154 78.769231 396.8 78.769231 232.172308 208.029538 178.057846 385.536L243.436308 316.534154C257.378462 301.843692 279.630769 301.489231 293.139692 315.746462 306.609231 330.003692 306.254769 353.476923 292.312615 368.167385L166.124308 501.326769C156.396308 511.606154 142.651077 514.402462 130.638769 510.582154 116.224 513.654154 101.021538 507.313231 93.262769 493.016615L5.12 330.948923C-4.608 313.028923 1.142154 290.146462 18.038154 279.788308 34.894769 269.469538 56.438154 275.613538 66.166154 293.494154L102.872615 360.999385C167.345231 151.985231 361.826462 0 591.990154 0 874.771692 0 1103.990154 229.218462 1103.990154 512 1103.990154 794.781538 874.771692 1024 591.990154 1024Z"
    p-id="3292"></path>
</svg>
