<?xml version="1.0" standalone="no"?><!DOCTYPE svg PUBLIC "-//W3C//DTD SVG 1.1//EN" "http://www.w3.org/Graphics/SVG/1.1/DTD/svg11.dtd"><svg t="1626575677535" class="icon" viewBox="0 0 1024 1024" version="1.1" xmlns="http://www.w3.org/2000/svg" p-id="4841" xmlns:xlink="http://www.w3.org/1999/xlink" width="64" height="64"><defs><style type="text/css"></style></defs><path d="M293.7 287c57.7 0 112.5 21.8 154.4 61.4l14.5 13.6H955.4v300H462.5L448 675.6c-41.9 39.6-96.8 61.4-154.4 61.4-30.4 0-59.9-5.9-87.6-17.7-26.8-11.3-50.9-27.6-71.5-48.2s-36.9-44.7-48.2-71.5c-11.7-27.7-17.7-57.2-17.7-87.6 0-30.4 5.9-59.9 17.7-87.6 11.3-26.8 27.6-50.9 48.2-71.5s44.7-36.9 71.5-48.2c27.8-11.8 57.3-17.7 87.7-17.7m0-50c-151.9 0-275 123.1-275 275s123.1 275 275 275c73.1 0 139.5-28.5 188.7-75h522.9V312H482.4c-49.3-46.5-115.7-75-188.7-75z m319.7 240h-70v70h70v-70z m137.2 0h-70v70h70v-70z m137.2 0h-70v70h70v-70z m-508.2-51.9c-6.7 0-16-0.5-28.8-2.2-37.9-4.8-64.9-32.6-64.9-32.6S259 418.1 221 422.9c-12.8 1.6-22.1 2.2-28.8 2.2-13.2 0-16.3-2.1-16.3-2.1l0.3 132.2s10.9 44.1 51.3 67.1c40.3 22.9 58.4 24 58.4 24s18.1-1.1 58.4-24 51.3-67.1 51.3-67.1l0.3-132.2s-3.2 2.1-16.3 2.1z m-24.7 119.1c-0.7 2.2-2.6 7.8-6.3 14.4-2.9 5.2-6.3 9.9-10 14-4.6 5.1-9.9 9.3-15.6 12.5-13.5 7.7-23.1 11.6-28.8 13.6-4.3 1.5-7.1 2.1-8.4 2.3-1.3-0.2-4-0.8-8.4-2.3-5.7-2-15.3-5.9-28.8-13.6-5.6-3.2-10.7-7.3-15.3-12.3a81.7 81.7 0 0 1-10-13.7c-3.9-6.8-5.9-12.7-6.6-15l-0.2-82.4h1.4c6.1 0 13.5-0.6 22.2-1.7 20.4-2.6 36.7-13.1 45.6-20.1 8.9 7 25.2 17.5 45.6 20.1 8.6 1.1 16.1 1.7 22.2 1.7h1.4v82.5z" fill="" p-id="4842"></path></svg>
