<?xml version="1.0" standalone="no"?><!DOCTYPE svg PUBLIC "-//W3C//DTD SVG 1.1//EN"
  "http://www.w3.org/Graphics/SVG/1.1/DTD/svg11.dtd">
<svg t="1547793153972" class="icon" style="" viewBox="0 0 1051 1024" version="1.1" xmlns="http://www.w3.org/2000/svg"
     p-id="4568" xmlns:xlink="http://www.w3.org/1999/xlink" width="205.2734375" height="200">
  <defs>
    <style type="text/css"></style>
  </defs>
  <path
    d="M6.048272 350.80107l499.639831 663.995038a26.296833 26.296833 0 0 0 39.182281 0l499.639831-663.995038a26.296833 26.296833 0 0 0 2.629683-29.452453L785.486408 12.886763A26.296833 26.296833 0 0 0 762.608163 0.001315H289.265165a26.296833 26.296833 0 0 0-22.08934 12.885448L3.418588 321.611585a26.296833 26.296833 0 0 0 2.629684 29.189485zM525.936664 67.584176a36.815566 36.815566 0 0 0 2.366715 6.837177l166.195986 232.201037H358.162868l166.195986-230.886196a36.28963 36.28963 0 0 0 1.57781-8.152018z m225.626829 291.368912h221.682304L559.859579 913.290332zM525.936664 835.451706l-164.618176-476.498618h330.551194z m-227.204639-476.498618l190.126104 550.129751L77.31269 358.953088z m674.250804-52.593666h-208.533888v-3.15562l-181.448149-251.923662h165.670049z m-669.517374-255.079282h166.721923L289.265165 303.46677v3.15562H78.8905z"
    p-id="4569"></path>
</svg>
