<svg class="icon" viewBox="0 0 1024 1024" xmlns="http://www.w3.org/2000/svg" width="200" height="200">
  <defs>
    <style/>
  </defs>
  <path
    d="M753.845 371.674h-17.463v-83.67c0-59.275-22.628-115.203-63.715-157.482-42.17-43.395-99.369-67.292-161.058-67.292-126.04 0-224.772 98.732-224.772 224.773v83.67h-16.681c-62.788 0-113.688 50.9-113.688 113.688v357.6c0 62.789 50.9 113.69 113.688 113.69h483.69c62.788 0 113.688-50.901 113.688-113.69V485.363c-.002-62.788-50.9-113.688-113.689-113.688zm-425.669-83.669c0-102.858 80.573-183.432 183.432-183.432 50.423 0 97.093 19.448 131.411 54.762 33.547 34.52 52.022 80.215 52.022 128.67v83.67H328.176v-83.67zm498.016 554.957c0 39.956-32.39 72.347-72.347 72.347h-483.69c-39.956 0-72.347-32.391-72.347-72.347v-357.6c0-39.956 32.39-72.346 72.347-72.346h483.69c39.956 0 72.347 32.39 72.347 72.346v357.6z"/>
  <path
    d="M509.933 580.447c-11.416 0-20.67 9.255-20.67 20.67v109.555c0 11.415 9.254 20.67 20.67 20.67 11.416 0 20.67-9.254 20.67-20.67V601.117c0-11.415-9.254-20.67-20.67-20.67z"/>
</svg>
