<?xml version="1.0" standalone="no"?><!DOCTYPE svg PUBLIC "-//W3C//DTD SVG 1.1//EN"
  "http://www.w3.org/Graphics/SVG/1.1/DTD/svg11.dtd">
<svg t="1553159745204" class="icon" style="" viewBox="0 0 1024 1024" version="1.1" xmlns="http://www.w3.org/2000/svg"
     p-id="2509" xmlns:xlink="http://www.w3.org/1999/xlink" width="200" height="200">
  <defs>
    <style type="text/css"></style>
  </defs>
  <path
    d="M511.4 669.5c-8.8 0-17.6-2.2-26.5-6.6L171.8 464.4c-6.6-4.4-8.8-13.2-4.4-22.1 4.4-6.6 13.2-8.8 22-4.4l313.1 196.2c5.9 4.4 14 4.4 19.8 0L835.5 438c6.6-4.4 17.6-2.2 22 4.4 4.4 6.6 2.2 17.6-4.4 22.1L540 660.6c-8.8 6.7-17.6 8.9-28.6 8.9z"
    p-id="2510"></path>
  <path
    d="M815.7 865.7H209.3c-26.5 0-50.7-22.1-50.7-48.5V471c0-19.8 11-37.5 30.9-46.3l88.2-37.5c8.8-4.4 17.6 0 19.8 8.8 4.4 8.8 0 17.6-8.8 19.8l-88.2 37.5c-6.6 2.2-11 8.8-11 17.6v346.2c0 11 8.8 19.8 19.8 19.8h606.4c5.3 0 10.3-2.1 14-5.8 3.7-3.7 5.8-8.8 5.8-14V464.4c0-2.2-2.2-4.4-4.4-6.6l-94.8-39.7c-7.5-3.4-11.3-11.9-8.8-19.8 2.2-8.8 13.2-11 19.8-8.8l94.8 39.7c13.2 6.6 22 19.8 22 35.3v352.8c0.1 26.4-22 48.4-48.4 48.4z"
    p-id="2511"></path>
  <path
    d="M740.7 528.4c-4.1 0.1-8.1-1.5-11.1-4.4-2.9-2.9-4.5-6.9-4.4-11V210.9c0-5.3-2-10.3-5.8-14.1-3.7-3.7-8.8-5.8-14-5.8H317.3c-5.3 0-10.3 2.1-14 5.8-3.7 3.7-5.8 8.8-5.8 14v302.1c0.1 4.1-1.5 8.1-4.4 11-2.9 2.9-6.9 4.5-11.1 4.4-6.6 0-13.2-6.6-13.2-15.4v-302c0-26.5 22-50.7 48.5-50.7h388.1c26.4 0 50.7 22.1 50.7 50.7V513c0.1 4.1-1.5 8.1-4.4 11-2.9 2.9-6.9 4.5-11 4.4z"
    p-id="2512"></path>
  <path
    d="M461.4 487.6c18 7.3 37.3 11.9 60.5 11.9 22.4 0 41.6-4 57.7-10.1 16.1-6.2 29.1-14.8 38.9-27.1h0.2c0.6-6.5 6.1-11.5 12.6-11.5 6.9 0 12.5 5.4 12.7 12.1h1c-0.3 0.8-0.7 1.7-1 2.5-0.2 3.2-1.6 6.1-4 8.2-7.4 13.1-19.5 24.7-34.8 33.1C583 518.9 556 525 524 525c-30.9 0-57.6-5.2-80.1-15.4-21.4-9.7-39-26.2-50.2-46.9-11-20.1-16.6-42.7-16.4-65.6 0-25.9 6.2-50.1 18.7-72.5s29.5-39.2 51.1-50.4c21.6-11.2 46.4-16.8 74.2-16.8 23.6 0 44.6 4.5 62.9 13.6 18.3 9.1 30.8 21.9 40.5 38.6 9.7 16.7 12.9 34.9 12.9 54.6 0 23.5-7.1 46.7-19.6 63.8-14.7 20.2-41.3 35.3-70.2 35.3-7.8 0-13.7-1.4-17.6-4-4-2.8-6.8-7-7.9-11.8-11 10.5-23.8 15.8-38.2 15.8-7.8 0-20.4-3-30.6-13.6-10.2-10.6-15.5-26.2-14.9-43.7 0.8-20 6.9-39.5 17.6-56.4 14.5-22.1 35.7-31.9 49.9-31.9 16.7 0 35.3 7.8 43.3 20.4l1.3-4.6c-0.1-0.8-0.5-1.4-0.5-2.2l-0.1-1.1c0-3.2 1.3-6.3 3.7-8.6 2.3-2.3 5.4-3.5 8.7-3.5 6.8 0 12.3 5.4 12.3 12.1v0.1h0.1l-0.1 0.4 0.1 0.6c0 2.2-0.7 4.1-1.7 5.8l-20.8 79.7c-1 4.2-1.6 8.5-2 12.8 0 2.3 0.5 4 1.6 5.2 1.1 1.2 2.4 1.7 3.9 1.7 4.5 0 20.4-6.2 27.4-11.6 9.6-7 15.3-13.5 21.2-25.3 5.9-11.8 7.5-24 7.5-36.7 0-22.7-5-41.7-21.6-57-16.7-15.3-39.9-23.1-69.8-23.1-25.4 0-45.6 5.3-63.2 15.5-17.5 9.9-31.4 25-40.1 43.1-9 18.5-14 37.8-14 57.8 0 19.5 4.9 36.6 14.8 52.5 10.6 16.1 25.6 28.7 43.3 35.9zM528.7 351c-4.9-5.6-12.8-7.7-20.4-7.7-8 0-14.4 1.8-21.2 7.9-6.9 6.2-12 11.9-15.5 23.2-3.5 11.4-8.1 21.4-8.1 30.2 0 11.7 2.4 20.4 7.2 25.9 4.8 5.5 13.9 8.3 21 8.3 5.3 0 8.8-2 13.5-4.6 3.5-1.8 7.1-4.7 10.5-8.7 5-5.6 9.2-13.8 12.9-24.7 3.6-10.8 8.1-20.2 8.1-29.5 0.1-10.4-3-14.8-8-20.3z"
    p-id="2513"></path>
</svg>
