<?xml version="1.0" standalone="no"?><!DOCTYPE svg PUBLIC "-//W3C//DTD SVG 1.1//EN"
  "http://www.w3.org/Graphics/SVG/1.1/DTD/svg11.dtd">
<svg t="1562066304118" class="icon" viewBox="0 0 1024 1024" version="1.1" xmlns="http://www.w3.org/2000/svg" p-id="3979"
     xmlns:xlink="http://www.w3.org/1999/xlink" width="200" height="200">
  <defs>
    <style type="text/css"></style>
  </defs>
  <path
    d="M317.125 688.504l539.969 0c25.713 0 51.426-17.142 59.996-42.854l102.852-445.688c8.572-17.142 0-34.284-8.57-51.426-8.57-17.142-34.285-25.712-51.426-25.712L222.844 122.824 197.132 11.4 34.284 11.4C17.142 11.4 0 19.971 0 37.113c0 17.142 17.142 34.284 34.284 34.284l111.421 0 51.426 222.844 0 0c0 8.571 0 8.571 0 17.142l77.138 317.125c-34.283 17.142-68.567 59.996-68.567 111.423 0 34.283 17.142 59.996 34.284 77.138-17.143 17.142-34.284 51.426-34.284 77.138 0 59.998 51.426 111.423 111.422 111.423 59.997 0 111.422-42.854 111.422-102.852 0-17.142-8.571-34.283-8.571-51.426l368.55 0c-8.568 17.143-8.568 34.284-8.568 51.426 0 59.997 51.424 111.423 111.42 111.423 59.998 0 111.424-51.426 111.424-111.423 0-59.996-42.855-102.851-102.852-111.422l-8.572 0L317.125 791.356l0 0c-25.713 0-51.425-25.713-51.425-51.425C274.27 714.218 291.412 688.504 317.125 688.504zM882.807 851.352c25.713 0 51.426 25.713 51.426 51.426 0 25.714-17.143 42.855-51.426 42.855-25.713 0-51.426-25.714-51.426-51.427C831.381 868.494 857.094 851.352 882.807 851.352zM317.125 945.633c-25.713 0-51.425-25.714-51.425-51.427 0-25.712 25.712-51.425 51.425-51.425l0 0 0 0c25.713 0 51.426 25.713 51.426 51.425C368.551 928.491 342.838 945.633 317.125 945.633zM857.094 628.508 342.838 628.508 274.27 328.525l651.392 0L857.094 628.508zM959.945 182.819l-17.143 85.709L257.128 268.528l-17.142-77.139L959.945 182.819z"
    p-id="3980"></path>
</svg>
