<svg class="icon" viewBox="0 0 1291 1024" xmlns="http://www.w3.org/2000/svg" width="252.148" height="200">
  <defs>
    <style/>
  </defs>
  <path
    d="M779.656 669.38a31.508 31.508 0 0 1-22.37-9.295l-111.38-111.38-111.38 111.38a31.508 31.508 0 0 1-44.583-44.584l133.75-133.592a31.508 31.508 0 0 1 44.426 0l133.75 133.592a31.508 31.508 0 0 1-22.213 53.878z"/>
  <path
    d="M960.982 1023.998H787.69a31.508 31.508 0 0 1 0-63.016h166.36a29.302 29.302 0 0 1 5.357 0 283.569 283.569 0 0 0 54.98-557.527 31.508 31.508 0 0 1-23.63-27.412 346.584 346.584 0 0 0-689.702 0 31.508 31.508 0 0 1-23.788 27.412 283.569 283.569 0 0 0 55.138 557.527 31.508 31.508 0 0 1 5.514 0h307.987a31.508 31.508 0 0 1 0 63.016H330.83a33.398 33.398 0 0 1-8.98-1.26 346.584 346.584 0 0 1-80.817-675.051 409.6 409.6 0 0 1 809.746 0 346.584 346.584 0 0 1-81.132 675.208 31.508 31.508 0 0 1-8.665 1.103z"/>
  <path
    d="M645.906 1008.244a31.508 31.508 0 0 1-31.507-31.508V551.383a31.508 31.508 0 0 1 63.015 0v425.353a31.508 31.508 0 0 1-31.508 31.508z"/>
</svg>
