<svg class="icon" viewBox="0 0 1024 1024" xmlns="http://www.w3.org/2000/svg" width="200" height="200">
  <defs>
    <style/>
  </defs>
  <path
    d="M512.694 923.654h-.005c-5.335 0-10.446-1.89-14.202-5.677l-127.012-127.97c-1.623-1.632-165.076-165.855-188.502-189.281-68.977-68.977-109.485-146.327-117.146-223.744-7.621-77.016 19.012-150.244 74.993-206.226 54.855-54.853 121.684-77.84 193.254-66.483 59.696 9.472 121.131 42.556 178.62 96.013 57.488-53.457 118.923-86.536 178.62-96.008 71.573-11.35 138.399 11.64 193.253 66.492 55.981 55.981 82.614 129.226 74.993 206.242-7.66 77.417-48.169 154.797-117.146 223.775-51.15 51.15-312.884 314.542-315.522 317.2-3.754 3.784-8.866 5.667-14.198 5.667z"/>
</svg>
