<?xml version="1.0" standalone="no"?><!DOCTYPE svg PUBLIC "-//W3C//DTD SVG 1.1//EN"
  "http://www.w3.org/Graphics/SVG/1.1/DTD/svg11.dtd">
<svg t="1561965578262" class="icon" viewBox="0 0 1024 1024" version="1.1" xmlns="http://www.w3.org/2000/svg" p-id="4500"
     xmlns:xlink="http://www.w3.org/1999/xlink" width="200" height="200">
  <defs>
    <style type="text/css"></style>
  </defs>
  <path
    d="M1002.117125 357.680552l-0.261507-0.637347-0.109468-0.688432c0-0.156904-0.047436-0.261507-0.047436-0.451251l-0.109468-0.261507c-0.318673-1.37808-0.636131-2.517764-1.16401-3.549195l-91.788904-200.367763-0.052301-0.209205c-11.550088-31.971949-45.24555-56.725092-85.826547-56.777394L199.523418 94.738458c-39.839048 0-71.5726 23.561159-82.908618 55.05753l-0.109468 0.289482-93.309292 203.542335c-0.214071 0.688432-0.532744 1.829332-0.740733 2.96415l-0.109468 0.451251-0.156904 0.39895c-5.563406 15.893535-8.371868 32.209129-8.371868 48.609866 0.052301 56.815099 33.324487 108.949834 86.833653 136.28399l6.194672 3.073618c21.40464 9.697647 46.358474 14.648032 74.224158 14.648032 49.430876-0.209205 126.862445-30.155997 158.542479-65.200347l6.305356-7.022979 6.300491 7.022979c58.548342 44.866061 111.577066 60.611206 160.685619 60.929879 48.951649-0.397734 108.9547-16.063818 157.170481-61.14395l6.305356-6.912295 6.305356 6.912295c31.624084 35.150169 110.91296 65.015468 160.50074 65.015468 30.460074-0.209205 57.375819-6.034118 79.939603-17.608533 53.726886-27.342669 87.051373-79.682961 87.051373-136.686589C1010.279788 389.361803 1007.471326 372.884439 1002.117125 357.680552L1002.117125 357.680552zM900.507727 490.495623c-15.632028 7.920617-34.964074 12.077967-57.375819 12.158244-41.748656 0-112.503895-27.708779-134.5398-60.925014l-0.318673-0.346649-0.214071-0.446386c-1.221176-2.465462-3.282823-6.704306-7.150692-10.595284-4.133025-4.31912-11.706993-11.450351-24.425956-11.450351-9.959154 0-19.280961 5.620573-24.368789 11.497787l-0.209205 0.189745c-3.606362 3.810702-5.725175 7.84034-7.098391 10.485816l-0.214071 0.346649-0.214071 0.343c-21.879001 33.005813-90.358522 62.74948-131.475913 63.038962-41.425117-0.184879-113.107185-31.035389-135.095654-64.170131l-0.209205-0.294347-0.266372-0.451251c-1.273478-2.514115-5.273924-7.327057-8.242939-10.400675l-0.104603-0.156904c-5.406502-5.986682-12.952495-11.554954-23.438311-11.554954-9.957937 0-17.973426 5.169321-22.63433 10.310668l-0.214071 0.212854c-4.128159 4.261953-7.350167 9.764544-8.514176 12.115673l-0.214071 0.503553-0.317457 0.452468c-22.093072 32.982703-84.030056 59.602884-125.565858 59.712352-21.081101 0-39.410906-3.57717-54.457889-10.595284l-0.104603 0-1.857307-1.007105c-39.150616-19.366102-55.499051-46.05318-55.551352-87.407752 0-12.262847 2.171115-24.525693 6.512129-36.417565 0.214071-0.480443 0.428141-1.1409 0.585046-1.881633l0.156904-0.637347 85.288938-183.373467c5.668009-15.231862 11.782404-22.966383 31.861265-22.966383l618.466127 0 0.214071 0.052301c8.950832 0.503553 21.684391 1.77703 30.051394 24.159584l91.203858 184.998458 0.104603 0.636131c0.214071 0.845336 0.532744 1.772165 0.745599 2.622366 4.34223 11.897953 6.565646 24.051332 6.565646 36.237551C947.981559 446.285154 939.078163 470.810847 900.507727 490.495623L900.507727 490.495623zM900.507727 490.495623"
    p-id="4501"></path>
  <path
    d="M820.662997 930.249187 206.308001 930.249187c-37.700773 0-68.374918-24.425956-68.374918-61.794676L137.933082 636.07831c0-20.809864 10.894497-37.681312 31.70436-37.681312 20.81108 0 32.698086 16.866584 32.698086 37.681312l0 231.754666 619.311463 0L821.646993 636.07831c0-20.809864 11.891872-37.681312 32.702952-37.681312s34.692836 16.866584 34.692836 37.681312l0 232.377417C889.042781 905.823231 858.368636 930.249187 820.662997 930.249187L820.662997 930.249187zM820.662997 930.249187"
    p-id="4502"></path>
  <path
    d="M770.60937 310.852582 250.698484 310.852582c-17.165796 0-31.082826-13.91703-31.082826-31.082826 0-17.165796 13.91703-31.082826 31.082826-31.082826l519.915751 0c17.165796 0 31.082826 13.91703 31.082826 31.082826C801.697061 296.935552 787.780031 310.852582 770.60937 310.852582L770.60937 310.852582zM770.60937 310.852582"
    p-id="4503"></path>
</svg>
