<?xml version="1.0" standalone="no"?><!DOCTYPE svg PUBLIC "-//W3C//DTD SVG 1.1//EN"
  "http://www.w3.org/Graphics/SVG/1.1/DTD/svg11.dtd">
<svg t="1562039346026" class="icon" viewBox="0 0 1024 1024" version="1.1" xmlns="http://www.w3.org/2000/svg" p-id="5051"
     xmlns:xlink="http://www.w3.org/1999/xlink" width="200" height="200">
  <defs>
    <style type="text/css"></style>
  </defs>
  <path
    d="M1008.992028 395.856602c8.007226-2.437313 13.578226-9.958164 13.578226-18.407152L1022.570255 132.997851c0-21.516903-17.548653-39.089493-39.066643-39.089493L40.379963 93.908358c-21.517991 0-39.066643 17.571502-39.066643 39.089493l0 728.200531c0 21.494053 17.524715 39.042705 39.066643 39.042705l693.519963 0.093575c0.32425 0 0.62565 0 1.066324 0 0.53425 0 51.253207-1.927 81.848012 24.930229 3.645088 3.202237 8.264014 4.827838 12.743664 4.827838 5.33815 0 10.677389-2.2741 14.438902-6.521988 7.080176-8.077951 6.197738-20.12524-1.695238-27.205417-41.086131-36.141868-101.647915-34.864455-108.703065-34.540205l-693.103226-0.092487c-0.32425 0-0.53425-0.231762-0.53425-0.5114L39.96105 133.021789c0-0.348188 0.208913-0.533162 0.53425-0.533162l943.124737-0.139275c0.32425 0 0.5571 0.254612 0.5571 0.510312l0 231.034409c-25.487329 10.492414-47.515632 27.506816-64.322209 49.627607-20.217728 26.672254-30.919054 58.518358-30.919054 92.153276 0 33.566368 10.701327 65.343922 30.919054 92.130426 16.783728 22.121878 38.812031 39.137369 64.322209 49.628695l0 213.810006c0 0.3014-0.231762 0.5114-0.5571 0.5114L901.982025 861.755482c-10.58599 0-19.26674 8.657901-19.26674 19.219953 0 10.584902 8.681839 19.28959 19.26674 19.28959l81.638012 0c21.516903 0 39.065555-17.548653 39.065555-39.043793L1022.685592 633.830824c0-8.448989-5.454576-15.945902-13.578226-18.407152-48.908382-15.064552-81.66195-59.190795-81.66195-109.771566C927.236504 455.002786 960.105408 410.945092 1008.992028 395.856602z"
    p-id="5052"></path>
  <path
    d="M829.674352 171.480192c0-10.560964-8.681839-19.265652-19.265652-19.265652-10.608839 0-19.290678 8.704689-19.290678 19.265652l0 54.364046c0 10.584902 8.681839 19.219953 19.290678 19.219953 10.584902 0 19.265652-8.636139 19.265652-19.219953L829.674352 171.480192zM829.674352 310.778062c0-10.584902-8.681839-19.28959-19.265652-19.28959-10.608839 0-19.290678 8.704689-19.290678 19.28959L791.118021 365.049621c0 10.584902 8.681839 19.28959 19.290678 19.28959 10.584902 0 19.265652-8.704689 19.265652-19.28959L829.674352 310.778062zM829.674352 450.030233c0-10.607751-8.681839-19.265652-19.265652-19.265652-10.608839 0-19.290678 8.657901-19.290678 19.265652l0 54.340108c0 10.58599 8.681839 19.243891 19.290678 19.243891 10.584902 0 19.265652-8.657901 19.265652-19.243891L829.674352 450.030233z"
    p-id="5053"></path>
  <path
    d="M829.674352 595.833769c0-10.560964-8.681839-19.265652-19.265652-19.265652-10.608839 0-19.290678 8.704689-19.290678 19.265652l0 54.364046c0 10.584902 8.681839 19.219953 19.290678 19.219953 10.584902 0 19.265652-8.636139 19.265652-19.219953L829.674352 595.833769zM810.4087 715.842049"
    p-id="5054"></path>
  <path
    d="M829.674352 742.730833c0-10.560964-8.681839-19.265652-19.265652-19.265652-10.608839 0-19.290678 8.704689-19.290678 19.265652l0 54.364046c0 10.584902 8.681839 19.219953 19.290678 19.219953 10.584902 0 19.265652-8.636139 19.265652-19.219953L829.674352 742.730833zM810.4087 862.7402"
    p-id="5055"></path>
  <path
    d="M556.955365 465.367894c44.393913 48.964962 112.290485 88.788913 184.105255 107.721611-11.098478 9.139923-24.155511 28.073709-31.33688 40.476803-35.907929-11.098478-70.509067-28.724385-102.498798-48.964962l0 0.65394c-8.487072 131.877123-17.626995 183.453492-35.907929 202.38619-11.75133 13.057033-24.155511 16.975231-43.088209 18.932698-18.280934 1.305703-52.229221 1.305703-87.48321-1.305703-0.652852-13.709885-6.528517-32.642583-14.362736-45.699616 34.602226 3.91711 67.896572 3.91711 80.301842 3.91711 11.752418 0 18.280934-1.305703 24.155511-6.528517 11.752418-11.752418 19.58555-51.575281 26.768006-148.851266L399.61594 588.106182c-17.626995 97.274897-62.021995 167.1322-199.774783 204.996508-5.222813-12.404181-17.626995-31.33688-28.072621-41.129654 123.390051-30.033352 161.908299-86.177507 178.230679-163.867942l-101.193095 0 0-23.504836c-26.768006 17.628083-54.840627 33.949374-86.177507 48.312111-4.569962-11.75133-19.58555-30.684028-30.684028-39.825039 65.285166-28.073709 118.167238-65.939105 159.296892-107.721611L150.877282 465.365718l0-43.742149 178.22959 0c16.974143-21.544105 30.685116-43.741061 43.089297-66.590869L190.701233 355.0327l0-43.089297 108.374463 0c-10.445627-22.196956-32.642583-56.146331-52.882072-80.301842l38.518248-19.58555c21.544105 24.808363 45.699616 58.756649 56.799182 81.606457l-35.253989 18.279846 85.524655 0c15.667352-38.518248 25.461215-78.343287 30.684028-116.208683l50.923517 5.222813c-6.529605 37.212544-16.32238 74.425089-29.379413 110.98587l77.690435 0c21.544105-27.41977 48.311023-69.203364 62.674847-97.928837l44.393913 15.015588c-17.626995 28.725473-38.518248 58.756649-58.756649 82.913249l105.110205 0 0 43.089297L425.730006 355.031612c-11.098478 22.849808-22.849808 45.046764-37.866484 66.590869l331.652994 0 0 43.742149L556.955365 465.36463zM578.498382 543.711181c-30.032264-22.849808-56.146331-49.617814-76.384732-78.343287L355.873791 465.367894c-22.849808 28.072621-48.963874 54.186688-79.647902 78.343287L578.498382 543.711181z"
    p-id="5056"></path>
</svg>
