<?xml version="1.0" standalone="no"?><!DOCTYPE svg PUBLIC "-//W3C//DTD SVG 1.1//EN"
  "http://www.w3.org/Graphics/SVG/1.1/DTD/svg11.dtd">
<svg t="1562059358905" class="icon" viewBox="0 0 1024 1024" version="1.1" xmlns="http://www.w3.org/2000/svg" p-id="865"
     xmlns:xlink="http://www.w3.org/1999/xlink" width="200" height="200">
  <defs>
    <style type="text/css"></style>
  </defs>
  <path
    d="M965 939.7c-37.1 49.9-103 80.4-161 80.4-21.6 0-42.1-4.2-59.6-13.3-68-35.2-136.6-120.5-186.6-182.8-16.5-20.6-35-43.6-43.3-51.1-330.7-24.4-354.2-227-353.4-288.8 1.9-161.8 135.6-309.6 286.1-316.3h0.1c132 0 229.3 35.4 290.4 105.3 67.2 76.8 90.5 195.7 69.2 353.3-1.8 13.3-14.1 22.6-27.3 20.8-13.3-1.8-22.6-14-20.8-27.3 19.3-143.1-0.1-249-57.6-314.8-51.5-58.9-136.5-88.7-252.8-88.7-134.4 6-237.2 146.6-238.7 268.3-0.8 65.7 28.2 220.7 313.6 240.2 18.1 1.9 30.8 16.9 72.4 68.7 44.6 55.6 112.1 139.6 171 170 39.2 20.3 119 1.2 159.3-52.9 44-59.2 24.3-137.2-55.4-219.6-9.3-9.6-9.1-25 0.6-34.3 9.6-9.3 25-9.1 34.3 0.6C1043 799.5 992.9 902.2 965 939.7z m-750.7-802c5.5 0 10.9-1.8 15.5-5.6 96.1-79.6 183.6-102 267.3-68.6 12.4 4.9 26.6-1.1 31.6-13.5 5-12.5-1.1-26.6-13.5-31.6C414.8-21.6 308.3 4 198.8 94.7c-10.3 8.6-11.8 23.9-3.2 34.2 4.8 5.8 11.7 8.8 18.7 8.8zM84.8 206.4c-24.7 13.6-42.1 41.7-53.1 85.8-3.2 13 4.7 26.2 17.7 29.4 2 0.5 3.9 0.7 5.9 0.7 10.9 0 20.8-7.4 23.5-18.4 7.2-29 17.7-48.6 29.4-55 11.7-6.5 16-21.3 9.5-33-6.4-11.7-21.1-16-32.9-9.5z"
    p-id="866"></path>
</svg>
