<svg class="icon" viewBox="0 0 1024 1024" xmlns="http://www.w3.org/2000/svg" width="200" height="200">
  <defs>
    <style/>
  </defs>
  <path
    d="M586.946 513.581c55.067-27.963 92.912-85.126 92.912-150.998 0-93.339-75.937-169.276-169.277-169.276s-169.276 75.937-169.276 169.276c0 65.872 37.845 123.034 92.911 150.998-95.652 32.016-164.778 122.455-164.778 228.744 0 11.315 9.173 20.491 20.491 20.491s20.492-9.175 20.492-20.491c0-110.369 89.791-200.161 200.16-200.161s200.16 89.792 200.16 200.16c0 11.316 9.174 20.492 20.492 20.492s20.492-9.175 20.492-20.491c-.001-106.289-69.127-196.727-164.78-228.744zM382.288 362.583c0-70.742 57.553-128.294 128.293-128.294 70.742 0 128.294 57.553 128.294 128.294 0 70.741-57.553 128.293-128.294 128.293-70.74 0-128.293-57.552-128.293-128.293z"/>
  <path
    d="M827.871 196.128C743.498 111.758 631.321 65.29 512 65.29s-231.5 46.466-315.871 130.838C111.756 280.502 65.29 392.678 65.29 511.999s46.465 231.5 130.838 315.872S392.679 958.71 512 958.71s231.498-46.465 315.871-130.838S958.71 631.32 958.71 512s-46.465-231.498-130.838-315.871zM512 917.727c-223.718 0-405.727-182.008-405.727-405.728 0-223.718 182.009-405.727 405.727-405.727S917.727 288.28 917.727 512c0 223.72-182.009 405.728-405.727 405.728z"/>
</svg>
