<svg class="icon" viewBox="0 0 1024 1024" xmlns="http://www.w3.org/2000/svg" width="200" height="200">
  <defs>
    <style/>
  </defs>
  <path
    d="M909.051 169.477H691.496V138.13c0-39.587-32.205-71.792-71.793-71.792H408.156c-39.587 0-71.792 32.205-71.792 71.792v31.347H113.35c-11.014 0-19.943 8.94-19.943 19.954s8.929 19.955 19.943 19.955h84.264v640.688c0 60.48 49.203 109.683 109.683 109.683H723.77c60.48 0 109.683-49.204 109.683-109.683V209.386h75.596c11.013 0 19.942-8.94 19.942-19.955s-8.928-19.954-19.941-19.954zM376.248 138.13c0-17.594 14.314-31.908 31.908-31.908h211.547c17.594 0 31.908 14.314 31.908 31.908v31.347H376.248V138.13zM793.57 850.075c0 38.486-31.312 69.798-69.799 69.798H307.298c-38.487 0-69.799-31.312-69.799-69.798V211.043h556.07v639.032z"/>
  <path
    d="M510.663 861.277c11.012 0 19.954-8.93 19.954-19.942V294.913c0-11.014-8.942-19.942-19.954-19.942s-19.955 8.928-19.955 19.942v546.422c0 11.013 8.942 19.942 19.955 19.942zM374.563 801.45c11.013 0 19.954-8.93 19.954-19.943V354.74c0-11.013-8.941-19.942-19.954-19.942s-19.955 8.929-19.955 19.942v426.767c0 11.013 8.942 19.942 19.955 19.942zM649.832 801.45c11.013 0 19.955-8.93 19.955-19.943V354.74c0-11.013-8.942-19.942-19.955-19.942s-19.954 8.929-19.954 19.942v426.767c0 11.013 8.941 19.942 19.954 19.942z"/>
</svg>
