<?xml version="1.0" standalone="no"?><!DOCTYPE svg PUBLIC "-//W3C//DTD SVG 1.1//EN"
  "http://www.w3.org/Graphics/SVG/1.1/DTD/svg11.dtd">
<svg t="1562050326388" class="icon" viewBox="0 0 1024 1024" version="1.1" xmlns="http://www.w3.org/2000/svg" p-id="7860"
     xmlns:xlink="http://www.w3.org/1999/xlink" width="200" height="200">
  <defs>
    <style type="text/css"></style>
  </defs>
  <path
    d="M757.1216 974.6c-13.4736 0-28.6656-3.8832-42.7632-10.9296l-200.8752-100.4496-202.1376 100.3056c-12.8208 6.8112-27.4704 10.4064-42.3984 10.4064-19.6128 0-38.7696-6.2736-53.9424-17.6496-28.3008-21.2256-42.8064-57.9696-36.1104-91.4496l41.3616-214.488L61.7888 502.6352c-24.3792-24.384-34.0464-61.4112-24.6336-94.3488l0.336-1.0896c11.5056-34.512 40.0992-58.7232 74.7408-63.36l220.1616-40.032 98.808-200.7072c15.8784-31.7712 48.1728-52.2048 82.32-52.2048 35.6208 0 68.7072 21.1728 82.5936 52.7616l98.496 200.064 220.224 38.496c34.7184 4.8672 64.0464 30.5184 73.3488 64.0992 10.848 33.456 2.1024 69.6672-22.9152 94.6848l-0.5568 0.5424-158.0016 148.7952 39.9024 214.848c6.4368 34.3584-7.2144 69.0768-35.6592 90.7056-14.7456 12.072-33.8496 18.7104-53.832 18.7104z m-243.5472-169.8192l224.1888 112.0992c6.5808 3.2928 14.1792 5.4048 19.3632 5.4048 8.0208 0 15.4272-2.4912 20.856-7.008l1.0512-0.84c12.7536-9.5616 18.936-24.744 16.1472-39.6432l-45.1248-242.9616 178.4592-168.0624c10.9104-11.0928 14.664-27.0144 9.7872-41.6496l-0.4608-1.5312c-3.72-13.968-15.9792-24.6528-30.4992-26.592l-1.0368-0.1632-246.8784-43.1616-111.0864-225.696c-5.3952-12.6048-20.04-21.7488-34.8096-21.7488-14.5104 0-28.4256 9.0864-35.4576 23.136l-110.3808 224.208-248.1888 45.0864c-15.0864 1.8816-26.784 11.904-32.1936 27.5328-3.8448 14.2704 0.7152 31.464 11.1936 42.1728l178.6032 166.4592-46.8816 243.1008c-2.8176 14.0976 3.8448 30.2736 16.1664 39.5088 6.1776 4.6416 14.184 7.1808 22.5552 7.1808 6.4608 0 12.6912-1.5024 18.0144-4.3824l0.7776-0.3984 225.8352-112.0512z"
    fill="" p-id="7861"></path>
  <path
    d="M756.8768 477.2816a11.232 11.232 0 0 1-2.0784-0.1872l-162.9312-28.4832-72.9216-148.1232a12.0336 12.0336 0 0 1 21.5904-10.6368l67.5168 137.1504 150.8928 26.3808a12.0288 12.0288 0 0 1 9.7728 13.9248 12.0384 12.0384 0 0 1-11.8416 9.9744z"
    fill="" p-id="7862"></path>
</svg>
