<svg class="icon" viewBox="0 0 1024 1024" xmlns="http://www.w3.org/2000/svg" width="200" height="200">
  <defs>
    <style/>
  </defs>
  <path
    d="M512 0C230.4 0 0 230.4 0 512s230.4 512 512 512 512-230.4 512-512S793.6 0 512 0zm0 960C262.4 960 64 761.6 64 512S262.4 64 512 64s448 198.4 448 448-198.4 448-448 448z"/>
  <path
    d="M556.8 518.4V339.2c0-19.2-12.8-32-32-32s-32 12.8-32 32v192c0 6.4 0 19.2 6.4 19.2l198.4 204.8c6.4 6.4 12.8 12.8 25.6 12.8 6.4 0 12.8 0 19.2-6.4 12.8-12.8 12.8-32 0-44.8L556.8 518.4z"/>
</svg>
