<svg class="icon" viewBox="0 0 1024 1024" xmlns="http://www.w3.org/2000/svg" width="200" height="200">
  <defs>
    <style/>
  </defs>
  <path
    d="M955.07 864.311L740.014 649.258a20.013 20.013 0 0 0-28.298 0l-16.693 16.692-38.342-38.342c53.038-59.81 85.299-138.442 85.299-224.479 0-186.774-151.953-338.727-338.728-338.727S64.528 216.355 64.528 403.129c0 186.776 151.952 338.73 338.727 338.73 86.37 0 165.277-32.511 225.17-85.915l38.304 38.304-17.345 17.345c-7.813 7.814-7.813 20.483 0 28.297l215.052 215.053a20.015 20.015 0 0 0 28.298 0l62.335-62.334c7.814-7.814 7.814-20.484 0-28.298zM104.545 403.129c0-164.709 134-298.709 298.71-298.709s298.709 134 298.709 298.71-134 298.71-298.71 298.71-298.709-134.001-298.709-298.71zm774.04 509.367L691.83 725.741l34.036-34.036L912.62 878.46l-34.036 34.036z"/>
</svg>
