<svg class="icon" viewBox="0 0 1024 1024" xmlns="http://www.w3.org/2000/svg" width="200" height="200">
  <defs>
    <style/>
  </defs>
  <path
    d="M850.88 96.416H174.575c-60.681 0-110.05 49.367-110.05 110.05v446.2c0 60.68 49.368 110.05 110.05 110.05h90.308L396.936 931.13a20.008 20.008 0 0 0 31.494 0l132.052-168.415H850.88c60.681 0 110.05-49.367 110.05-110.05v-446.2c0-60.68-49.368-110.05-110.05-110.05zm70.031 556.25c0 38.614-31.416 70.03-70.03 70.03H550.743A20.007 20.007 0 0 0 535 730.36L412.683 886.356 290.367 730.36a20.004 20.004 0 0 0-15.745-7.663H174.576c-38.614 0-70.03-31.417-70.03-70.031v-446.2c0-38.615 31.416-70.032 70.03-70.032h676.303c38.615 0 70.031 31.417 70.031 70.031v446.2z"/>
  <path
    d="M272.621 344.527c-44.132 0-80.036 35.903-80.036 80.036 0 44.132 35.904 80.036 80.036 80.036s80.036-35.904 80.036-80.036c-.001-44.133-35.905-80.036-80.036-80.036zm0 120.055c-22.066 0-40.017-17.952-40.017-40.018s17.953-40.018 40.017-40.018c22.066 0 40.017 17.952 40.017 40.018 0 22.065-17.951 40.018-40.017 40.018zM512.728 344.527c-44.133 0-80.036 35.903-80.036 80.036 0 44.132 35.903 80.036 80.036 80.036 44.132 0 80.035-35.904 80.035-80.036 0-44.133-35.903-80.036-80.035-80.036zm0 120.055c-22.066 0-40.018-17.952-40.018-40.018s17.952-40.018 40.018-40.018c22.065 0 40.017 17.952 40.017 40.018.001 22.065-17.952 40.018-40.017 40.018zM752.836 344.527c-44.131 0-80.036 35.903-80.036 80.036 0 44.132 35.905 80.036 80.036 80.036s80.036-35.904 80.036-80.036c0-44.133-35.905-80.036-80.036-80.036zm0 120.055c-22.066 0-40.017-17.952-40.017-40.018s17.952-40.018 40.017-40.018 40.018 17.952 40.018 40.018c0 22.065-17.951 40.018-40.018 40.018z"/>
</svg>
