<?xml version="1.0" standalone="no"?><!DOCTYPE svg PUBLIC "-//W3C//DTD SVG 1.1//EN"
  "http://www.w3.org/Graphics/SVG/1.1/DTD/svg11.dtd">
<svg t="1562145607092" class="icon" viewBox="0 0 1024 1024" version="1.1" xmlns="http://www.w3.org/2000/svg" p-id="3253"
     xmlns:xlink="http://www.w3.org/1999/xlink" width="200" height="200">
  <defs>
    <style type="text/css"></style>
  </defs>
  <path
    d="M691.2 870.4H307.2c-14.336 0-25.6-11.264-25.6-25.6s11.264-25.6 25.6-25.6h384c14.336 0 25.6 11.264 25.6 25.6s-11.264 25.6-25.6 25.6z"
    p-id="3254"></path>
  <path
    d="M874.496 998.4H149.504c-42.496 0-76.8-34.304-76.8-76.8l0.512-7.168 58.368-614.4c3.584-39.936 36.352-69.632 76.288-69.632h608.256c39.936 0 72.704 29.696 76.288 69.632l58.368 614.4c2.048 20.48-4.096 40.448-17.408 56.32-12.8 15.872-31.744 25.6-52.224 27.648h-6.656zM207.872 281.6a25.6 25.6 0 0 0-25.6 23.04l-58.368 614.4c0 16.384 11.264 28.16 25.6 28.16h724.48c9.216-1.024 15.36-4.096 19.968-9.216s6.144-11.776 5.632-18.432l-58.368-614.4a25.2416 25.2416 0 0 0-25.6-23.04H207.872z"
    p-id="3255"></path>
  <path
    d="M716.8 384c-14.336 0-25.6-11.264-25.6-25.6V256c0-98.816-80.384-179.2-179.2-179.2S332.8 157.184 332.8 256v102.4c0 14.336-11.264 25.6-25.6 25.6s-25.6-11.264-25.6-25.6V256C281.6 129.024 385.024 25.6 512 25.6s230.4 103.424 230.4 230.4v102.4c0 14.336-11.264 25.6-25.6 25.6z"
    p-id="3256"></path>
</svg>
