<?xml version="1.0" standalone="no"?><!DOCTYPE svg PUBLIC "-//W3C//DTD SVG 1.1//EN"
  "http://www.w3.org/Graphics/SVG/1.1/DTD/svg11.dtd">
<svg t="1585566112591" class="icon" viewBox="0 0 1024 1024" version="1.1" xmlns="http://www.w3.org/2000/svg" p-id="1963"
     xmlns:xlink="http://www.w3.org/1999/xlink" width="200" height="200">
  <defs>
    <style type="text/css"></style>
  </defs>
  <path
    d="M834.5 0H185.3C123.7 0 70 54.1 70 125.1v666.2c0 55.5 33.8 104.3 83 119.9l328.9 107.6c11 3.5 22 5.1 32.8 5.1 61.6 0 115.3-54.1 115.3-125.1V874h204.5c66 0 119.5-53.5 119.5-119.5v-635C954 53.5 900.5 0 834.5 0zM576 898.9c0 20.1-7 38.6-19.8 52.1-11.5 12.2-26.3 19-41.5 19-5.4 0-10.8-0.9-16.2-2.5L169.8 859.9c-0.1 0-0.3-0.1-0.4-0.1-26.7-8.5-45.3-36.6-45.3-68.5V125.1c0-20.1 7-38.6 19.8-52.1 11.5-12.2 26.3-19 41.5-19 5.4 0 10.8 0.9 16.2 2.5L530.2 164c0.1 0 0.3 0.1 0.4 0.1 26.7 8.5 45.3 36.6 45.3 68.5v666.3z m324-144.4c0 36.1-29.4 65.5-65.5 65.5H630V232.7c0-55.5-33.8-104.3-83-119.9L367.4 54h467.1c36.1 0 65.5 29.4 65.5 65.5v635z"
    p-id="1964"></path>
  <path
    d="M484 405h-30c-24.9 0-45 20.1-45 45v200c0 24.9 20.1 45 45 45h30c24.9 0 45-20.1 45-45V450c0-24.9-20.1-45-45-45z m5 245c0 2.8-2.2 5-5 5h-30c-2.8 0-5-2.2-5-5V450c0-2.8 2.2-5 5-5h30c2.8 0 5 2.2 5 5v200z"
    p-id="1965"></path>
</svg>
