<?xml version="1.0" standalone="no"?><!DOCTYPE svg PUBLIC "-//W3C//DTD SVG 1.1//EN"
  "http://www.w3.org/Graphics/SVG/1.1/DTD/svg11.dtd">
<svg t="1547174248775" class="icon" style="" viewBox="0 0 1024 1024" version="1.1" xmlns="http://www.w3.org/2000/svg"
     p-id="1414" xmlns:xlink="http://www.w3.org/1999/xlink" width="200" height="200">
  <defs>
    <style type="text/css"></style>
  </defs>
  <path
    d="M509.15555555 583.68c-10.46755555 0-21.04888889-3.29955555-29.80977777-9.78488889L23.552 338.48888889c-3.29955555-1.70666667-6.37155555-3.98222222-8.98844445-6.59911111-9.44355555-9.44355555-14.67733333-22.07288889-14.67733333-35.38488889 0-13.42577778 5.23377778-25.94133333 14.67733333-35.38488889 2.50311111-2.50311111 5.46133333-4.66488889 8.64711112-6.37155555l457.15911111-243.48444445c17.63555555-13.312 42.21155555-13.312 59.96088889-0.11377778l455.79377778 238.81955556c3.29955555 1.70666667 6.25777778 3.86844445 8.87466666 6.48533333 9.44355555 9.44355555 14.67733333 22.07288889 14.67733334 35.38488889s-5.23377778 25.94133333-14.67733334 35.38488889c-2.61688889 2.61688889-5.57511111 4.77866667-8.76088889 6.48533333l-457.04533333 240.07111111c-8.98844445 6.59911111-19.456 9.89866667-30.03733334 9.89866667zM100.23822222 296.16355555l408.80355556 211.17155556 410.16888889-215.38133333-408.80355556-214.24355556-410.16888889 218.45333333z m878.93333333 5.34755556zM1003.74755555 687.44533333L509.83822222 947.42755555l-497.664-257.13777777c-11.71911111 14.10844445-21.39022222 63.14666667 4.32355556 80.896l474.22577777 245.30488889c7.73688889 5.12 29.01333333 5.12 36.97777778 0.34133333L1003.52 767.31733333c29.01333333-15.24622222 15.70133333-69.17688889 0.22755555-79.872z"
    p-id="1415"></path>
  <path
    d="M1003.74755555 468.65066667L509.83822222 728.51911111l-497.664-257.13777778c-11.71911111 14.10844445-21.39022222 63.14666667 4.32355556 80.896L490.60977778 797.58222222c7.73688889 5.12 29.01333333 5.12 36.97777777 0.34133333L1003.29244445 548.40888889c29.24088889-15.13244445 15.92888889-69.17688889 0.4551111-79.75822222z"
    p-id="1416"></path>
</svg>
