<?xml version="1.0" standalone="no"?><!DOCTYPE svg PUBLIC "-//W3C//DTD SVG 1.1//EN"
  "http://www.w3.org/Graphics/SVG/1.1/DTD/svg11.dtd">
<svg t="1547175139136" class="icon" style="" viewBox="0 0 1024 1024" version="1.1" xmlns="http://www.w3.org/2000/svg"
     p-id="1406" xmlns:xlink="http://www.w3.org/1999/xlink" width="200" height="200">
  <defs>
    <style type="text/css"></style>
  </defs>
  <path
    d="M672.5632 897.57013333a146.90986667 146.90986667 0 1 1 146.90986667-146.90986666 147.456 147.456 0 0 1-146.90986667 146.90986666z m0-239.2064a92.29653333 92.29653333 0 1 0 92.29653333 92.29653334 92.29653333 92.29653333 0 0 0-92.29653333-92.29653334z"
    p-id="1407"></path>
  <path
    d="M672.5632 645.25653333a27.30666667 27.30666667 0 0 1-27.30666667-27.30666666v-80.2816a27.30666667 27.30666667 0 0 1 27.30666667-27.30666667 27.30666667 27.30666667 0 0 1 27.30666667 27.30666667v80.2816a27.8528 27.8528 0 0 1-27.30666667 27.30666666zM557.32906667 711.33866667a31.1296 31.1296 0 0 1-13.65333334-3.2768l-69.35893333-40.41386667a27.30666667 27.30666667 0 0 1 27.30666667-46.96746667l69.35893333 39.86773334a27.8528 27.8528 0 0 1 10.37653333 37.13706666 28.39893333 28.39893333 0 0 1-24.02986666 13.65333334zM487.97013333 884.46293333a27.30666667 27.30666667 0 0 1-23.48373333-13.65333333 27.8528 27.8528 0 0 1 9.8304-37.6832l69.35893333-39.86773333a27.8528 27.8528 0 0 1 37.6832 9.8304 28.39893333 28.39893333 0 0 1-10.37653333 37.6832l-69.35893333 39.86773333a24.576 24.576 0 0 1-13.65333334 3.82293333zM672.5632 990.95893333a27.30666667 27.30666667 0 0 1-27.30666667-27.30666666V883.37066667a27.30666667 27.30666667 0 0 1 27.30666667-27.30666667 27.30666667 27.30666667 0 0 1 27.30666667 27.30666667v80.2816a27.8528 27.8528 0 0 1-27.30666667 27.30666666zM856.61013333 884.46293333a25.66826667 25.66826667 0 0 1-13.65333333-3.82293333L773.59786667 839.68a27.8528 27.8528 0 0 1-9.8304-37.6832 26.76053333 26.76053333 0 0 1 37.13706666-9.8304l69.35893334 39.86773333a28.39893333 28.39893333 0 0 1 10.37653333 37.6832 27.8528 27.8528 0 0 1-24.02986667 14.7456zM785.06666667 711.33866667a27.30666667 27.30666667 0 0 1-13.65333334-50.7904l71.54346667-39.3216a27.30666667 27.30666667 0 1 1 27.30666667 46.96746666l-69.35893334 40.41386667a29.4912 29.4912 0 0 1-15.83786666 2.73066667z"
    p-id="1408"></path>
  <path
    d="M512 1014.9888a111.95733333 111.95733333 0 0 1-58.43626667-15.83786667l-335.872-193.3312a118.51093333 118.51093333 0 0 1-58.43626666-101.5808v-387.75466666a118.51093333 118.51093333 0 0 1 58.43626666-101.5808L453.56373333 20.48a116.3264 116.3264 0 0 1 116.87253334 0l335.872 193.87733333a118.51093333 118.51093333 0 0 1 58.43626666 101.5808v243.57546667a27.30666667 27.30666667 0 0 1-27.30666666 27.30666667 27.8528 27.8528 0 0 1-27.30666667-27.30666667V316.48426667a62.2592 62.2592 0 0 0-31.1296-54.61333334l-335.872-193.3312a63.35146667 63.35146667 0 0 0-62.2592 0L144.9984 262.41706667a62.2592 62.2592 0 0 0-31.1296 54.61333333v387.75466667a62.2592 62.2592 0 0 0 31.1296 54.61333333l335.872 193.87733333a63.35146667 63.35146667 0 0 0 62.2592 0l16.384-9.28426666a27.30666667 27.30666667 0 0 1 27.30666667 46.96746666l-16.384 9.28426667a111.95733333 111.95733333 0 0 1-58.43626667 14.7456z"
    p-id="1409"></path>
  <path
    d="M512 539.30666667a24.576 24.576 0 0 1-13.65333333-3.82293334L184.32 355.80586667a26.76053333 26.76053333 0 0 1-9.8304-37.13706667 27.8528 27.8528 0 0 1 37.13706667-10.37653333l311.84213333 180.224a27.30666667 27.30666667 0 0 1-13.65333333 50.7904z"
    p-id="1410"></path>
  <path d="M484.69333333 484.69333333l54.61333334 0 0 110.86506667-54.61333334 0 0-110.86506667Z" p-id="1411"></path>
  <path
    d="M512 539.30666667a27.30666667 27.30666667 0 0 1-13.65333333-50.7904l311.296-180.224a27.8528 27.8528 0 0 1 37.6832 9.8304 27.30666667 27.30666667 0 0 1-9.8304 37.13706666l-311.84213334 180.224a24.576 24.576 0 0 1-13.65333333 3.82293334zM356.352 587.3664a30.03733333 30.03733333 0 0 1-13.65333333-3.82293333L184.32 494.52373333a27.30666667 27.30666667 0 1 1 27.30666667-46.96746666l155.648 88.4736a27.30666667 27.30666667 0 0 1 10.37653333 37.13706666 27.8528 27.8528 0 0 1-21.2992 14.19946667z"
    p-id="1412"></path>
  <path d="M195.24266667 466.1248v205.34613333l127.24906666 70.99733334v-195.51573334L195.24266667 466.1248z"
        p-id="1413"></path>
</svg>
