<?xml version="1.0" standalone="no"?><!DOCTYPE svg PUBLIC "-//W3C//DTD SVG 1.1//EN"
  "http://www.w3.org/Graphics/SVG/1.1/DTD/svg11.dtd">
<svg t="1552871337369" class="icon" style="" viewBox="0 0 1024 1024" version="1.1" xmlns="http://www.w3.org/2000/svg"
     p-id="1020" xmlns:xlink="http://www.w3.org/1999/xlink" width="200" height="200">
  <defs>
    <style type="text/css"></style>
  </defs>
  <path
    d="M635.8 736.8H387.2c-19.7 0-35.7 16-35.7 35.7v151.7c0 19.7 16 35.7 35.7 35.7h248.7c19.7 0 35.7-16 35.7-35.7V772.4c-0.1-19.6-16.1-35.6-35.8-35.6z m-28.3 159h-192v-95h192v95z"
    p-id="1021"></path>
  <path
    d="M635.8 400.8H387.2c-19.7 0-35.7 16-35.7 35.7V485H97v398h99v30c0 7.7 9.3 11.5 14.7 6.1l50.5-50.5c3.4-3.4 3.4-8.8 0-12.1L210.7 806c-5.4-5.4-14.7-1.6-14.7 6.1v27h-55V529h210.5v59.1c0 19.7 16 35.7 35.7 35.7h248.7c19.7 0 35.7-16 35.7-35.7V436.4c-0.1-19.6-16.1-35.6-35.8-35.6z m-28.3 159h-192v-95h192v95z"
    p-id="1022"></path>
  <path
    d="M671.5 150v-49.6c0-19.7-16-35.7-35.7-35.7H387.2c-19.7 0-35.7 16-35.7 35.7v151.7c0 19.7 16 35.7 35.7 35.7h248.7c19.7 0 35.7-16 35.7-35.7V194H883v310h-55v-27c0-7.7-9.3-11.5-14.7-6.1l-50.5 50.5c-3.4 3.4-3.4 8.8 0 12.1l50.5 50.5c5.4 5.4 14.7 1.6 14.7-6.1v-30h99V150H671.5z m-64 73.8h-192v-95h192v95z"
    p-id="1023"></path>
</svg>
