<?xml version="1.0" standalone="no"?><!DOCTYPE svg PUBLIC "-//W3C//DTD SVG 1.1//EN"
  "http://www.w3.org/Graphics/SVG/1.1/DTD/svg11.dtd">
<svg t="1562235600521" class="icon" viewBox="0 0 1024 1024" version="1.1" xmlns="http://www.w3.org/2000/svg" p-id="2819"
     xmlns:xlink="http://www.w3.org/1999/xlink" width="200" height="200">
  <defs>
    <style type="text/css"></style>
  </defs>
  <path
    d="M438.857143 804.571429c0-117.028571 58.514286-226.742857 146.285714-292.571429 0-43.885714 29.257143-73.142857 73.142857-73.142857 14.628571 0 29.257143 7.314286 43.885715 14.628571 29.257143-7.314286 65.828571-14.628571 102.4-14.628571 80.457143 0 160.914286 29.257143 219.428571 73.142857 0-285.257143-226.742857-512-512-512S0 226.742857 0 512c0 131.657143 51.2 256 138.971429 351.085714 14.628571 14.628571 21.942857 58.514286-21.942858 95.085715-7.314286 7.314286-29.257143 21.942857-58.514285 29.257142-7.314286 0-7.314286 7.314286-7.314286 7.314286 29.257143 21.942857 58.514286 29.257143 87.771429 29.257143 65.828571 0 95.085714-21.942857 131.657142-36.571429 21.942857-7.314286 51.2-7.314286 58.514286 0 58.514286 21.942857 117.028571 36.571429 182.857143 36.571429-43.885714-58.514286-73.142857-138.971429-73.142857-219.428571zM365.714286 585.142857c-43.885714 0-73.142857-29.257143-73.142857-73.142857s29.257143-73.142857 73.142857-73.142857 73.142857 29.257143 73.142857 73.142857-29.257143 73.142857-73.142857 73.142857z"
    p-id="2820"></path>
  <path
    d="M804.571429 585.142857c-124.342857 0-219.428571 95.085714-219.428572 219.428572s95.085714 219.428571 219.428572 219.428571 219.428571-95.085714 219.428571-219.428571-95.085714-219.428571-219.428571-219.428572z m-65.828572 87.771429h131.657143c36.571429 0 65.828571 29.257143 65.828571 65.828571H672.914286c0-36.571429 29.257143-65.828571 65.828571-65.828571z m0 263.314285c-36.571429 0-65.828571-29.257143-65.828571-65.828571v-102.4h65.828571v168.228571z m197.485714-73.142857c0 43.885714-29.257143 73.142857-73.142857 73.142857h-87.771428v-168.228571h87.771428c43.885714 0 73.142857 29.257143 73.142857 73.142857v21.942857z"
    p-id="2821"></path>
</svg>
