<?xml version="1.0" standalone="no"?><!DOCTYPE svg PUBLIC "-//W3C//DTD SVG 1.1//EN"
  "http://www.w3.org/Graphics/SVG/1.1/DTD/svg11.dtd">
<svg t="1585565947999" class="icon" viewBox="0 0 1024 1024" version="1.1" xmlns="http://www.w3.org/2000/svg" p-id="1805"
     xmlns:xlink="http://www.w3.org/1999/xlink" width="200" height="200">
  <defs>
    <style type="text/css"></style>
  </defs>
  <path
    d="M489.6 601.6H220.8c-12.4 0-22.4 10-22.4 22.4 0 12.4 10 22.4 22.4 22.4h268.8c12.4 0 22.4-10 22.4-22.4 0-12.4-10-22.4-22.4-22.4z"
    p-id="1806"></path>
  <path
    d="M892.6 293.8c9.4 0 22.6 7 22.6 22.5v257.1c0 15.5-13.2 22.5-22.6 22.5-4.4 0-8.7-1.4-12.6-4.2l-73.5-51.4-25.7-18v-155l25.7-18 73.5-51.4c3.9-2.7 8.1-4.1 12.6-4.1M646.4 131.2h-448C124.5 131.2 64 191.7 64 265.6V624c0 73.9 60.5 134.4 134.4 134.4h16.4l-58.2 100.8c-6.2 10.7-2.5 24.4 8.2 30.6 3.5 2 7.3 3 11.1 3 7.8 0 15.3-4 19.5-11.2l71.1-123.2h311.8l71.1 123.2c4.1 7.2 11.7 11.2 19.5 11.2 3.8 0 7.6-1 11.1-3 10.7-6.2 14.4-19.9 8.2-30.6L630 758.4h16.4c73.9 0 134.4-60.5 134.4-134.4v-47l73.5 51.4c12.1 8.4 25.4 12.3 38.3 12.3 34.9 0 67.4-27.7 67.4-67.3V316.3c0-39.6-32.5-67.3-67.4-67.3-13 0-26.2 3.8-38.3 12.3l-73.5 51.4v-47c0-74-60.5-134.5-134.4-134.5z m-448 582.4c-49.4 0-89.6-40.2-89.6-89.6V265.6c0-49.4 40.2-89.6 89.6-89.6h448c49.4 0 89.6 40.2 89.6 89.6V624c0 49.4-40.2 89.6-89.6 89.6h-448z"
    p-id="1807"></path>
</svg>
