<?xml version="1.0" standalone="no"?><!DOCTYPE svg PUBLIC "-//W3C//DTD SVG 1.1//EN"
  "http://www.w3.org/Graphics/SVG/1.1/DTD/svg11.dtd">
<svg t="1562422939228" class="icon" viewBox="0 0 1024 1024" version="1.1" xmlns="http://www.w3.org/2000/svg" p-id="3320"
     xmlns:xlink="http://www.w3.org/1999/xlink" width="200" height="200">
  <defs>
    <style type="text/css"></style>
  </defs>
  <path
    d="M949.4528 292.6592c-4.5056-10.5472-10.8544-20.0704-19.0464-28.16s-17.7152-14.5408-28.2624-18.944c-10.9568-4.608-22.6304-6.9632-34.6112-6.9632L822.272 238.592c1.024-2.048 1.9456-4.096 2.7648-6.144 6.0416-14.4384 9.0112-30.6176 9.0112-48.128 0-29.0816-9.4208-55.9104-26.624-75.5712-10.1376-11.5712-22.7328-20.48-37.4784-26.624-15.4624-6.4512-33.1776-9.728-52.8384-9.728-45.7728 0-92.2624 20.48-137.9328 60.8256-26.4192 23.3472-49.152 50.3808-66.6624 73.9328-5.632-7.5776-11.4688-14.848-17.408-22.016-16.384-19.6608-33.3824-37.1712-50.4832-52.0192-46.3872-40.2432-93.184-60.7232-138.9568-60.7232-19.5584 0-37.376 3.2768-52.8384 9.728-14.7456 6.144-27.3408 15.0528-37.4784 26.624-17.2032 19.5584-26.624 46.3872-26.624 75.5712 0 18.2272 3.3792 35.0208 10.0352 49.9712 0.6144 1.4336 1.3312 2.8672 2.048 4.3008l-45.4656 0c-11.9808 0-23.6544 2.3552-34.6112 6.9632-10.6496 4.5056-20.0704 10.8544-28.2624 18.944-8.192 8.0896-14.5408 17.6128-19.0464 28.16-4.608 10.9568-6.9632 22.528-6.9632 34.5088l0 177.2544 889.9584 0L956.416 327.168C956.5184 315.1872 954.1632 303.616 949.4528 292.6592zM608.8704 166.4c37.376-32.9728 73.8304-49.664 108.4416-49.664 25.2928 0 44.4416 7.0656 56.7296 21.0944 10.1376 11.5712 15.6672 27.9552 15.6672 46.3872 0 18.944-4.9152 34.4064-14.9504 46.7968l-224.8704 0.8192C565.5552 210.6368 585.6256 186.88 608.8704 166.4zM249.1392 137.9328c12.288-14.0288 31.3344-21.0944 56.7296-21.0944 18.1248 0 37.0688 4.608 56.4224 13.824 17.5104 8.2944 35.4304 20.3776 53.3504 35.9424 24.3712 21.1968 45.056 45.568 60.2112 65.6384l-225.1776 0.8192C239.104 220.16 233.472 204.1856 233.472 184.32 233.472 165.888 239.0016 149.4016 249.1392 137.9328zM911.9744 459.9808l-800.768 0L111.2064 327.168c0-24.3712 19.968-44.2368 44.4416-44.2368l355.0208 0 2.1504 3.2768 2.1504-3.2768 352.5632 0c24.4736 0 44.4416 19.8656 44.4416 44.2368L911.9744 459.9808z"
    p-id="3321"></path>
  <path
    d="M837.8368 869.6832c0 22.3232-18.3296 40.5504-40.7552 40.5504L226.0992 910.2336c-22.4256 0-40.7552-18.2272-40.7552-40.5504L185.344 557.2608l-40.8576 0 0 312.5248c0 10.9568 2.1504 21.6064 6.4512 31.6416 4.096 9.6256 10.0352 18.3296 17.5104 25.8048 7.4752 7.4752 16.1792 13.312 25.9072 17.408 10.0352 4.1984 20.7872 6.3488 31.744 6.3488l570.9824 0c10.9568 0 21.7088-2.1504 31.744-6.3488 9.728-4.096 18.432-9.9328 25.9072-17.408 7.4752-7.4752 13.4144-16.1792 17.5104-25.8048 4.3008-10.0352 6.4512-20.6848 6.4512-31.6416L878.6944 561.152l-40.8576 0L837.8368 869.6832z"
    p-id="3322"></path>
</svg>
