<?xml version="1.0" standalone="no"?><!DOCTYPE svg PUBLIC "-//W3C//DTD SVG 1.1//EN"
  "http://www.w3.org/Graphics/SVG/1.1/DTD/svg11.dtd">
<svg t="1547792917311" class="icon" style="" viewBox="0 0 1024 1024" version="1.1" xmlns="http://www.w3.org/2000/svg"
     p-id="3763" xmlns:xlink="http://www.w3.org/1999/xlink" width="200" height="200">
  <defs>
    <style type="text/css"></style>
  </defs>
  <path
    d="M512 0c-282.784 0-512 229.248-512 512s229.248 512 512 512 512-229.248 512-512-229.248-512-512-512zM393.12 670.048c-39.264 0-76.672-6.816-110.88-19.04l-96.032 64.224 0-3.872 31.136-92.768c-69.984-46.016-115.392-118.592-115.392-200.512 0-139.136 130.368-251.968 291.168-251.968 146.56 0 267.456 93.792 287.808 215.744-61.184 1.76-288.192 26.048-263.232 287.104-8.128 0.576-16.288 1.088-24.576 1.088zM820.576 778.08l19.808 71.04-73.568-44.352c-28.544 10.176-59.776 15.872-92.544 15.872-135.04 0-244.512-95.168-244.512-212.608s109.472-212.608 244.512-212.608c135.04 0 244.512 95.168 244.512 212.608 0 69.664-38.688 131.264-98.176 170.048zM328.352 335.84c0 22.176-17.984 40.16-40.16 40.16s-40.16-17.984-40.16-40.16c0-22.176 17.984-40.16 40.16-40.16s40.16 17.984 40.16 40.16zM537.248 335.84c0 22.176-17.984 40.16-40.16 40.16s-40.16-17.984-40.16-40.16c0-22.176 17.984-40.16 40.16-40.16s40.16 17.984 40.16 40.16zM639.264 544.704c0 22.176-17.984 40.16-40.16 40.16s-40.16-17.984-40.16-40.16c0-22.176 17.984-40.16 40.16-40.16s40.16 17.984 40.16 40.16zM800.544 544.704c0 22.176-17.984 40.16-40.16 40.16s-40.16-17.984-40.16-40.16c0-22.176 17.984-40.16 40.16-40.16s40.16 17.984 40.16 40.16z"
    p-id="3764"></path>
</svg>
