<?xml version="1.0" standalone="no"?><!DOCTYPE svg PUBLIC "-//W3C//DTD SVG 1.1//EN"
  "http://www.w3.org/Graphics/SVG/1.1/DTD/svg11.dtd">
<svg t="1591339973326" class="icon" viewBox="0 0 1024 1024" version="1.1" xmlns="http://www.w3.org/2000/svg" p-id="2658"
     xmlns:xlink="http://www.w3.org/1999/xlink" width="200" height="200">
  <defs>
    <style type="text/css"></style>
  </defs>
  <path
    d="M841.142857 146.285714H804.571429V0H219.428571v146.285714h-36.571428C80.457143 146.285714 0 226.742857 0 329.142857V731.428571c0 43.885714 29.257143 73.142857 73.142857 73.142858h73.142857v-73.142858H73.142857V329.142857C73.142857 270.628571 124.342857 219.428571 182.857143 219.428571h658.285714c58.514286 0 109.714286 51.2 109.714286 109.714286V731.428571h-73.142857v73.142858h73.142857c43.885714 0 73.142857-29.257143 73.142857-73.142858V329.142857C1024 226.742857 943.542857 146.285714 841.142857 146.285714zM731.428571 146.285714H292.571429V73.142857h438.857142v73.142857zM219.428571 1024h585.142858V438.857143H219.428571v585.142857z m73.142858-512h438.857142v438.857143H292.571429V512z m146.285714-219.428571H146.285714v73.142857h292.571429V292.571429z"
    p-id="2659"></path>
</svg>
