<svg class="icon" viewBox="0 0 1024 1024" xmlns="http://www.w3.org/2000/svg" width="200" height="200">
  <defs>
    <style/>
  </defs>
  <path
    d="M522.06 896h-384V128h682.667v341.333a21.333 21.333 0 1 0 42.667 0V106.667a21.333 21.333 0 0 0-21.333-21.334H116.727a21.333 21.333 0 0 0-21.333 21.334v810.666a21.333 21.333 0 0 0 21.333 21.334h405.334a21.333 21.333 0 1 0 0-42.667z"/>
  <path
    d="M322.45 388.907c-3.952 3.524-8.534 6.366-13.62 8.448a41.37 41.37 0 0 1-15.633 3.089c-8.96 0-17.314-1.562-24.84-4.634a120.917 120.917 0 0 1-21.65-11.409c-4.471-2.884-8.772-4.488-12.774-4.77l-.939-.026c-3.02 0-7.467 1.058-11.52 6.221-2.74 3.797-5.017 10.146-.29 18.859 3.405 6.297 10.249 12.015 21.018 17.519 6.792 3.277 14.575 6.067 23.133 8.303a95.508 95.508 0 0 0 24.056 3.072l2.534-.034c11.35-.23 22-2.228 31.642-5.914 9.702-3.712 18.159-8.943 25.13-15.565a70.485 70.485 0 0 0 16.35-23.603 74.837 74.837 0 0 0 5.812-29.5c0-9.549-1.349-18.082-4.02-25.36a58.871 58.871 0 0 0-11.784-19.5 81.621 81.621 0 0 0-18.364-14.77 225.681 225.681 0 0 0-23.654-12.186 897.972 897.972 0 0 1-19.209-8.84 102.656 102.656 0 0 1-15.889-9.166 40.252 40.252 0 0 1-10.504-10.803c-2.526-3.883-3.746-8.482-3.746-14.054 0-9.105 2.978-16.359 9.088-22.17 6.17-5.87 14.301-8.72 25.01-8.72l1.255-.018a40.875 40.875 0 0 1 17.912 4.207c6.579 3.174 12.125 6.332 16.4 9.318a24.15 24.15 0 0 0 14.192 4.762c5.41 0 9.72-2.432 12.51-7.083 3.26-5.615 3.268-11.622.025-17.374-2.859-5.051-7.552-9.591-13.96-13.5-6.093-3.703-13.492-6.835-22.016-9.326-17.093-4.992-36.088-5.095-52.549.392a66.551 66.551 0 0 0-22.22 12.4 61.841 61.841 0 0 0-15.574 20.138c-3.925 7.961-5.905 16.921-5.905 26.632 0 10.599 1.74 19.747 5.171 27.205 3.414 7.475 8.329 13.994 14.567 19.379 6.05 5.222 13.312 9.907 21.572 13.918 8.038 3.908 16.879 7.757 26.189 11.375 4.813 1.97 9.779 4.377 14.737 7.125a61.184 61.184 0 0 1 12.92 9.566 44.819 44.819 0 0 1 9.045 12.476c2.21 4.514 3.328 9.685 3.328 15.36 0 5.691-1.187 11.033-3.508 15.906a40.9 40.9 0 0 1-9.429 12.655zm284.603-81.818c0-16.913-2.236-33.28-6.648-48.631-4.446-15.463-11.178-29.193-19.985-40.824a97.596 97.596 0 0 0-33.536-28.006c-13.406-6.887-29.286-10.368-47.18-10.368-18.117 0-34.16 3.49-47.668 10.36a97.16 97.16 0 0 0-33.723 28.023c-8.832 11.656-15.446 25.412-19.661 40.874a184.465 184.465 0 0 0-6.298 48.572c0 17.152 2.244 33.621 6.656 48.964 4.446 15.446 11.162 29.176 19.985 40.824A97.067 97.067 0 0 0 452.72 424.9c13.508 6.878 29.32 10.36 46.984 10.36 14.567 0 27.725-2.287 39.117-6.784a104.405 104.405 0 0 0 28.988-17.613l12.169 11.887c6.016 6.024 11.409 9.165 16.477 9.6 5.436.495 10.095-1.613 13.219-5.607 5.486-5.888 9.079-15.846-4.89-29.815l-14.788-14.797a132.48 132.48 0 0 0 12.876-34.713 192 192 0 0 0 4.182-40.329zm-71.996 27.768c-4.053.98-7.774 3.14-11.204 6.57-4.48 4.95-6.596 9.762-6.298 14.302.256 3.84 2.168 7.288 5.419 10.01l21.128 21.12a57.574 57.574 0 0 1-18.048 10.948c-7.782 2.876-16.648 4.343-26.342 4.343-12.62 0-23.552-2.62-32.52-7.8a65.579 65.579 0 0 1-22.281-20.991c-5.871-8.909-10.257-19.149-13.073-30.438a147.507 147.507 0 0 1-4.318-35.823c0-12.553 1.45-24.79 4.318-36.36 2.816-11.401 7.262-21.616 13.218-30.371a68.506 68.506 0 0 1 22.332-20.89c8.857-5.162 19.729-7.79 32.324-7.79 12.373 0 23.202 2.628 32.18 7.799a67.456 67.456 0 0 1 22.485 21.035c5.947 8.874 10.402 19.208 13.226 30.728 2.859 11.665 4.31 24.073 4.31 36.864 0 10.368-.777 19.934-2.313 28.425a132.693 132.693 0 0 1-5.3 19.805l-15.521-15.77c-4.037-4.931-8.79-6.92-13.722-5.716zm132.574-152.184c-4.898 0-9.054 1.442-12.34 4.275-3.472 3.004-5.23 7.245-5.23 12.613v208.213c0 6.195 1.988 11.247 5.913 15.01 3.875 3.738 9.293 5.64 16.103 5.64h85.333c4.565 0 8.542-1.27 11.827-3.788 3.593-2.774 5.41-6.955 5.41-12.425 0-5.657-1.74-9.933-5.154-12.697-3.157-2.56-7.219-3.857-12.074-3.857h-71.851V199.56c-.009-10.727-6.545-16.888-17.937-16.888zM704.64 605.04c-54.58 0-98.978 44.407-98.978 98.995s44.399 98.987 98.978 98.987 98.995-44.4 98.995-98.987-44.407-98.995-98.995-98.995zm0 155.315a56.38 56.38 0 0 1-56.311-56.32c0-31.061 25.258-56.328 56.311-56.328a56.388 56.388 0 0 1 56.329 56.328c0 31.053-25.268 56.32-56.329 56.32z"/>
  <path
    d="M927.906 764.177a21.3 21.3 0 0 0-9.864-13.005l-39.715-23.21a174.54 174.54 0 0 0 .461-44.4l38.887-23.142a21.333 21.333 0 0 0 7.424-29.243l-47.65-80.094a21.333 21.333 0 0 0-29.483-7.28l-34.987 21.47c-11.972-8.95-24.576-15.948-34.927-20.966v-36.574A21.333 21.333 0 0 0 756.72 486.4h-102.4a21.333 21.333 0 0 0-21.333 21.333v33.246c-15.224 6.025-26.906 13.995-37.795 23.057l-31.53-19.08a21.316 21.316 0 0 0-29.534 7.62l-46.25 80.452a21.333 21.333 0 0 0 7.799 29.09l34.67 20.088a184.2 184.2 0 0 0-1.254 21.837c0 9.36.777 18.764 2.313 28.117l-34.697 20.676a21.316 21.316 0 0 0-7.415 29.235l47.667 80.086a21.316 21.316 0 0 0 29.773 7.1l33.485-21.274c9.062 7.339 18.9 14.114 32.768 19.396v49.963a21.333 21.333 0 0 0 21.333 21.333h102.4a21.333 21.333 0 0 0 21.333-21.333v-53.385a203.435 203.435 0 0 0 32.256-19.038l38.938 23.407a21.316 21.316 0 0 0 29.406-7.517l47.027-80.453a21.268 21.268 0 0 0 2.227-16.179zm-75.17 56.448l-33.178-19.942a21.316 21.316 0 0 0-25.19 2.363c-11.75 10.488-28.305 20.344-45.423 27.06a21.333 21.333 0 0 0-13.55 19.857V896H675.66v-44.373a21.333 21.333 0 0 0-16.359-20.745c-18.807-4.514-26.837-11.366-40.123-22.707l-3.388-2.884a21.333 21.333 0 0 0-25.233-1.733l-28.152 17.895-25.523-42.88 29.474-17.57a21.333 21.333 0 0 0 9.737-23.689 132.181 132.181 0 0 1-4.318-33.271c0-10.078.964-19.618 2.876-28.357a21.333 21.333 0 0 0-10.146-23.005l-29.022-16.82 24.772-43.102 26.257 15.881a21.31 21.31 0 0 0 25.438-2.509c15.761-14.404 26.846-23.56 47.804-29.064a21.316 21.316 0 0 0 15.914-20.634v-27.366h59.734v29.013a21.333 21.333 0 0 0 13.167 19.712c19.055 7.902 36.565 18.56 48.017 29.244a21.316 21.316 0 0 0 25.702 2.585l29.568-18.133 25.685 43.187-32.99 19.635a21.333 21.333 0 0 0-9.983 22.665 133.29 133.29 0 0 1-.683 57.054 21.333 21.333 0 0 0 10.018 23.236l34.21 19.994-25.378 43.366z"/>
</svg>
