<svg class="icon" viewBox="0 0 1024 1024" xmlns="http://www.w3.org/2000/svg" width="200" height="200">
  <defs>
    <style/>
  </defs>
  <path
    d="M218.316 307.727h87.886v205.06h-29.297v29.295h117.179v-29.294H364.79V307.727h87.882v29.293h29.294v-87.882H189.022v87.882h29.294v-29.293zm322.242 58.59h292.945v58.588H540.558v-58.588zm0 117.177h292.945v58.588H540.558v-58.588zm-351.536 117.18h644.481v58.588h-644.48v-58.587zm0 117.176h644.481v58.588h-644.48V717.85zm351.536-468.713h292.945v58.589H540.558v-58.589zm420.923 713.13H61.045V63.309h900.436v898.958zm-864.62-35.816h828.804V99.125H96.861V926.45z"/>
</svg>
