<svg class="icon" viewBox="0 0 1024 1024" xmlns="http://www.w3.org/2000/svg" width="200" height="200">
  <defs>
    <style/>
  </defs>
  <path
    d="M914.74 783.786l-807.028-.002c-21.541 0-39 17.45-39 38.974 0 21.523 17.457 38.975 39 38.975H914.74c21.54 0 39-17.452 39-38.975 0-21.525-17.458-38.972-39-38.972zm0-312.174H107.711c-21.541 0-39 17.452-39 38.975 0 21.525 17.457 38.973 39 38.973H914.74c21.54 0 39-17.446 39-38.973 0-21.525-17.458-38.975-39-38.975zM107.713 237.386H914.74c21.54 0 39-17.448 39-38.973 0-21.527-17.459-38.974-39-38.974H107.714c-21.542 0-39.001 17.447-39.001 38.973 0 21.527 17.458 38.974 39 38.974z"/>
</svg>
