<svg class="icon" viewBox="0 0 1024 1024" xmlns="http://www.w3.org/2000/svg" width="200" height="200">
  <defs>
    <style/>
  </defs>
  <path
    d="M757.81 373.751H325.646v-83.895c0-103.695 81.507-184.923 185.559-184.923 78.121 0 146.053 46.746 173.062 119.09 3.865 10.353 15.385 15.61 25.743 11.747 10.352-3.866 15.61-15.39 11.744-25.743-32.91-88.15-115.556-145.108-210.55-145.108-61.917 0-119.246 23.662-161.423 66.631-41.369 42.143-64.15 98.363-64.15 158.306v83.895h-20.008c-60.774 0-110.043 49.267-110.043 110.043v366.14c0 60.774 49.267 110.042 110.043 110.042H757.81c60.776 0 110.043-49.267 110.043-110.042v-366.14c0-60.776-49.267-110.043-110.043-110.043zm70.027 476.183c0 38.674-31.352 70.026-70.027 70.026H265.623c-38.675 0-70.027-31.352-70.027-70.026v-366.14c0-38.675 31.352-70.027 70.027-70.027H757.81c38.675 0 70.027 31.352 70.027 70.027v366.14z"/>
  <path
    d="M509.716 583.832c-11.049 0-20.008 8.959-20.008 20.008v110.042c0 11.049 8.958 20.008 20.008 20.008s20.008-8.958 20.008-20.008V603.84c0-11.05-8.958-20.008-20.008-20.008z"/>
</svg>
