<svg class="icon" viewBox="0 0 1024 1024" xmlns="http://www.w3.org/2000/svg" width="200" height="200">
  <defs>
    <style/>
  </defs>
  <path
    d="M902.068 744.573c0-60.966-71.69-136.044-128.705-144.511l77.336-127.577H671.753c32.176-46.289 53.627-107.255 53.627-174.994v-15.806c69.434-12.42 114.594-32.177 114.594-51.934 0-21.451-50.24-41.209-127.013-53.628-3.387-18.063-55.32-164.269-116.286-164.269-27.096 0-48.547 14.113-62.66 35.564 0 10.725-10.725 21.45-24.837 21.45-12.42 0-23.145-9.031-24.838-19.757-12.42-21.45-35.564-37.821-62.66-37.821-59.272 0-114.593 134.35-127.012 168.22-66.046 12.42-108.948 30.483-108.948 51.934s44.595 39.515 114.593 51.934v15.806c0 67.74 19.758 128.706 53.627 174.995H174.994l76.772 125.318c-57.014 0-132.092 78.466-132.092 146.77l1.693 205.477c0 33.87 26.532 60.966 60.966 60.966h661.028c33.87 0 60.965-27.096 60.965-60.966l-2.258-207.17zm-190.8-568.45zM464.582 962.47h-28.79l-53.627-395.15 112.336 98.224-29.919 296.926zm123.06 0h-28.789L528.37 665.544l112.9-99.917-53.627 396.843zm67.74-623.771v12.419H641.27s-9.032 76.772-57.014 76.772c-48.547 0-57.579-76.772-57.579-76.772h-32.176c-7.339 62.66-39.515 76.772-57.015 76.772-42.902 0-55.32-57.015-57.014-76.772h-14.677V326.28H473.05v12.419h71.69V326.28h107.256v12.419h3.387z"/>
</svg>
