<svg class="icon" viewBox="0 0 1024 1024" xmlns="http://www.w3.org/2000/svg" width="200" height="200">
  <defs>
    <style/>
  </defs>
  <path
    d="M1004.676 537.33l-.877-49.26c-.43-24.14-10.235-46.667-27.609-63.433-17.373-16.765-40.19-25.77-64.376-25.331l-23.767.422a404.337 404.337 0 0 0-31.934-75.575l20.776-19.147c17.756-16.362 28.075-38.657 29.06-62.782.984-24.124-7.484-47.186-23.845-64.941l-33.386-36.23c-33.776-36.649-91.074-38.99-127.724-5.213l-27.834 25.65a404.972 404.972 0 0 0-70.891-30.322v-24.222c0-49.841-40.549-90.39-90.39-90.39h-49.266c-49.84 0-90.39 40.549-90.39 90.39v18.87a404.356 404.356 0 0 0-76.617 29.13l-17.052-15.715c-17.755-16.362-40.82-24.829-64.942-23.846-24.124.984-46.42 11.305-62.782 29.059l-33.387 36.229c-33.776 36.65-31.437 93.947 5.214 127.723l4.23 3.897a403.323 403.323 0 0 0-39.588 90.394c-23.988-.322-46.672 8.674-63.942 25.339-17.374 16.765-27.179 39.293-27.609 63.433l-.877 49.258c-.431 24.14 8.566 47.003 25.332 64.376 16.765 17.374 39.293 27.178 63.433 27.608l2.429.044a403.748 403.748 0 0 0 36.822 87.676l-5.402 5.854c-16.374 17.744-24.858 40.801-23.888 64.925.968 24.126 11.274 46.428 29.017 62.802l36.207 33.411c17.35 16.01 39.332 23.92 61.264 23.92 24.367-.002 48.674-9.773 66.463-29.05l1.405-1.522a403.603 403.603 0 0 0 86.299 33.61v2.27c0 49.843 40.548 90.39 90.39 90.39h49.265c49.842 0 90.39-40.548 90.39-90.39v-8.817a403.976 403.976 0 0 0 81.43-36.812l7.275 7.882c16.373 17.744 38.676 28.05 62.801 29.018 24.136.982 47.184-7.514 64.926-23.887l36.207-33.411c17.744-16.373 28.05-38.677 29.018-62.801.969-24.126-7.514-47.183-23.888-64.926l-19.027-20.62a404.676 404.676 0 0 0 27.989-72.51l24.888-.445c49.828-.885 89.648-42.15 88.76-91.982zm-73.35 19.255c-4.564 4.414-10.743 6.763-17.091 6.876l-49.752.886c-15.358.274-28.488 11.129-31.645 26.162-7.414 35.301-20.35 69.058-38.448 100.334a32.934 32.934 0 0 0 4.301 38.83l34.961 37.887c4.442 4.813 6.742 11.067 6.48 17.61a24.362 24.362 0 0 1-7.87 17.035l-36.208 33.411c-4.813 4.441-11.086 6.748-17.61 6.48a24.362 24.362 0 0 1-17.035-7.871l-25.994-28.17c-11.132-12.063-29.446-14.087-42.944-4.749-33.364 23.084-70.13 39.867-109.277 49.884-14.576 3.73-24.771 16.863-24.771 31.908v33.546c0 13.541-10.977 24.517-24.518 24.517H484.64c-13.541 0-24.517-10.977-24.517-24.517v-28.561c0-15.801-11.222-29.376-26.741-32.347h-.001c-40.673-7.79-79.217-22.795-114.564-44.603-13.413-8.275-30.81-5.889-41.498 5.695l-19.182 20.787c-9.168 9.935-24.71 10.56-34.645 1.391l-36.207-33.411c-4.813-4.44-7.608-10.491-7.871-17.035-.263-6.543 2.038-12.797 6.48-17.61l22.234-24.095c10.23-11.086 11.62-27.706 3.374-40.339-22.694-34.763-38.68-72.876-47.512-113.284v-.001c-3.26-14.908-16.332-25.624-31.589-25.897l-27.593-.492c-13.517-.24-24.318-11.432-24.078-24.949l.869-48.743c.113-6.361 2.47-12.553 6.897-17.123 4.78-4.932 11.226-7.581 18.062-7.47l25.409.452c15.585.278 29.23-10.407 32.697-25.605 9.661-42.355 27.137-82.015 51.94-117.879 9.339-13.506 7.305-31.827-4.77-42.954l-24.539-22.614c-9.941-9.162-10.576-24.703-1.415-34.644l33.387-36.229c4.438-4.816 10.486-7.616 17.03-7.882 6.542-.266 12.798 2.03 17.614 6.468l34.32 31.629c10.606 9.773 26.337 11.51 38.818 4.285l.001-.001c32.52-18.825 67.673-32.05 104.48-39.31h.001c15.435-3.045 26.562-16.581 26.562-32.312v-45.015c0-13.54 10.977-24.518 24.517-24.518h49.266c13.54 0 24.518 10.977 24.518 24.518v49.09c0 15.114 10.287 28.287 24.95 31.951 34.914 8.726 68.11 22.899 98.661 42.124l.001.001c12.588 7.92 28.923 6.422 39.86-3.656l45.764-42.175c9.94-9.162 25.482-8.529 34.644 1.414l33.386 36.23c4.439 4.815 6.735 11.071 6.469 17.614s-3.066 12.59-7.881 17.03l-40.378 37.21c-11.745 10.824-14.032 28.516-5.422 41.97 20.707 32.362 35.68 67.673 44.506 104.955 3.568 15.07 17.152 25.62 32.636 25.343l49.396-.88c6.542-.119 12.75 2.324 17.461 6.873 4.713 4.547 7.372 10.658 7.49 17.204l.876 49.26c.124 6.838-2.544 13.3-7.488 18.08z"/>
  <path
    d="M509.272 371.355c-79.07 0-143.398 64.328-143.398 143.398S430.203 658.15 509.272 658.15 652.67 593.823 652.67 514.753s-64.328-143.398-143.398-143.398zm0 220.924c-42.748 0-77.526-34.777-77.526-77.526 0-42.748 34.778-77.526 77.526-77.526 42.75 0 77.526 34.778 77.526 77.526 0 42.749-34.778 77.526-77.526 77.526z"/>
</svg>
