<?xml version="1.0" standalone="no"?><!DOCTYPE svg PUBLIC "-//W3C//DTD SVG 1.1//EN"
  "http://www.w3.org/Graphics/SVG/1.1/DTD/svg11.dtd">
<svg t="1547174832578" class="icon" style="" viewBox="0 0 1024 1024" version="1.1" xmlns="http://www.w3.org/2000/svg"
     p-id="1340" xmlns:xlink="http://www.w3.org/1999/xlink" width="200" height="200">
  <defs>
    <style type="text/css"></style>
  </defs>
  <path
    d="M905.49406683 19.8619193l-721.79311503 0c-27.17908992 0-49.21316693 22.02164944-49.21316694 49.21316692l0 5.46812967c0 27.19151749 22.03407701 77.93327521 49.21316694 77.93327521l31.31746986 0 41.86847461 806.01473934c0.90721243 17.44830464 15.29833548 31.11862879 32.75906768 31.11862879l514.00418796 0c17.52287005 0 31.93884823-13.75731712 32.77149526-31.2677596l38.0532114-805.8780361 31.03163582 0c27.17908992 0 49.21316693-50.74175773 49.21316693-77.9332752L954.71966132 69.07508622C954.70723376 41.89599631 932.67315675 19.8619193 905.49406683 19.8619193zM772.35753718 923.99230331L320.78944787 923.99230331 280.72297055 152.47649109l528.05976671 1e-8L772.35753718 923.99230331zM376.57679796 543.59689254c-19.44914299 11.32151391-27.89988883-6.08950803-27.89988883-6.08950802-2.07540375-9.69350258-3.25602267-19.75983218-3.25602266-30.13685097 0-74.22986013 56.11046685-134.7148307 125.7172719-136.57896582l-49.13860154-32.36138552c-9.32067555-6.15164587-12.17901605-19.11359867-6.38776964-28.98108719 5.77881885-9.90477122 18.03240031-12.91224254 27.32822072-6.7854518l84.69387189 55.78735008c4.46149669 2.94533347 7.64295395 7.64295395 8.83600042 13.08622848 1.19304647 5.43084695 0.32311675 11.15995553-2.47308591 15.89485872l-52.63074796 89.81402966c-3.74069779 6.41262478-10.22788798 9.94205392-16.85178141 9.94205391-3.57913941 0-7.18313396-1.01906053-10.43915662-3.16902967-9.32067555-6.13921829-12.17901605-19.1011711-6.40019723-28.99351477l24.74328672-42.21644648c-48.33080965 1.10605349-87.32851617 43.06152107-87.32851618 94.5613604 0 4.89646156 0.47224756 9.61893717 1.1433362 14.29170252C386.24544541 521.66223607 390.71936967 536.1776348 376.57679796 543.59689254zM756.93492603 533.23230132l-84.70629945 55.76249497c-4.47392427 2.93290591-10.05390203 4.0016767-15.52203169 2.94533347-5.45570209-1.05634323-10.37701878-4.11352481-13.63304145-8.55016637l-61.70287217-83.82394216c-4.41178643-5.96523235-5.10773021-13.32235227-2.48551348-19.42428787 1.41674269-3.29330537 3.79040805-6.20135614 7.04643072-8.3513253 9.32067555-6.12679073 22.35719376-3.62884969 29.15507314 5.59240534l29.0183699 39.42024381c18.08211058-44.8386632-5.05801994-97.23328739-52.38219663-117.60207037-4.48635184-1.92627295-9.02241394-3.36787077-13.58333118-4.59819994 0 0-15.08706683-1.62801133-16.317396-17.54772518-2.7092097-22.35719376 16.62808519-23.22712349 16.62808519-23.22712348 9.73078528 1.93870051 19.43671542 4.83432372 28.95623206 8.9229934 68.20248993 29.34148665 101.59536355 104.78924837 75.82058874 169.46230917l49.13860154-32.36138555c9.32067555-6.12679073 22.36962133-3.62884969 29.15507313 5.59240535C768.31857778 514.67794318 766.24317403 527.13036574 756.93492603 533.23230132zM631.91359792 648.95780902c-7.03400315 6.99672045-14.85094305 13.4217728-23.56266781 19.03903328-62.41124352 40.19075299-143.66267923 25.79962994-182.9089371-31.71515203l-0.59652324 58.83210411c-0.12427568 11.13510039-9.46980637 20.5924792-20.90316838 21.06472675-11.44578958 0.48467513-20.60490676-8.17733936-20.49305865-19.31243975l1.01906052-101.40895005c0.06213783-5.35628155 2.29909997-10.57585986 6.21378371-14.54025386 3.92711131-3.90225616 9.22125502-6.30077667 14.70181224-6.53690046l104.00631164-4.37450372c7.40683018-0.32311675 13.90644793 3.20631239 17.48558734 8.77386258 1.95112809 3.01989888 3.03232645 6.59903829 2.99504374 10.50129447-0.12427568 11.15995553-9.46980637 20.58005163-20.90316838 21.06472676l-48.91490532 2.08783131c27.10452451 40.02919461 83.50082541 50.07066909 126.81089783 22.18320782 4.08866967-2.64707186 7.82936747-5.60483291 11.39607932-8.69929718 0 0 9.78049555-11.61977552 23.68694347-3.75312536C641.97992752 632.40428923 631.91359792 648.95780902 631.91359792 648.95780902z"
    p-id="1341"></path>
</svg>
