<?xml version="1.0" standalone="no"?><!DOCTYPE svg PUBLIC "-//W3C//DTD SVG 1.1//EN"
  "http://www.w3.org/Graphics/SVG/1.1/DTD/svg11.dtd">
<svg t="1562132599496" class="icon" viewBox="0 0 1024 1024" version="1.1" xmlns="http://www.w3.org/2000/svg" p-id="8389"
     xmlns:xlink="http://www.w3.org/1999/xlink" width="200" height="200">
  <defs>
    <style type="text/css"></style>
  </defs>
  <path
    d="M919.654 842.221H803.119V589.724c0-10.727-8.698-19.423-19.425-19.423s-19.423 8.696-19.423 19.423v252.497h-58.269V667.415c0-21.453-17.391-38.846-38.846-38.846h-97.114c-21.453 0-38.846 17.393-38.846 38.846v174.806h-271.92V589.724c0-10.727-8.696-19.423-19.421-19.423-10.729 0-19.425 8.696-19.425 19.423v252.497H103.895c-10.727 0-19.423 8.696-19.423 19.425 0 10.725 8.696 19.423 19.423 19.423h815.76c10.727 0 19.425-8.698 19.425-19.423-0.001-10.73-8.698-19.425-19.426-19.425z m-252.497 0h-97.114V686.838c0-10.725 8.696-19.423 19.425-19.423h58.267c10.727 0 19.423 8.698 19.423 19.423v155.383zM958.5 395.495l-19.421-135.958c0-64.361-52.178-116.539-116.539-116.539H201.009c-64.36 0-116.537 52.178-116.537 116.539L65.049 395.495h3.885l-3.885 19.423c0 42.909 34.784 77.691 77.691 77.691h38.846c23.237 0 44.032-10.253 58.27-26.421 14.237 16.168 35.031 26.421 58.267 26.421h19.423c23.238 0 44.032-10.253 58.271-26.421 14.235 16.168 35.031 26.421 58.267 26.421h19.425c23.236 0 44.03-10.253 58.267-26.421 14.237 16.168 35.033 26.421 58.269 26.421h19.425c23.234 0 44.03-10.253 58.267-26.421 14.237 16.168 35.033 26.421 58.269 26.421h19.423c23.236 0 44.032-10.253 58.269-26.421 14.237 16.168 35.033 26.421 58.269 26.421h38.846c42.907 0 77.691-34.782 77.691-77.691l-3.883-19.423h3.879z m-38.846 19.423c0 21.455-17.391 38.848-38.846 38.848h-38.846c-21.454 0-38.844-17.393-38.844-38.848v-77.692c0-10.725-8.698-19.423-19.425-19.423s-19.423 8.698-19.423 19.423v77.692c0 21.455-17.391 38.848-38.846 38.848h-19.423c-21.454 0-38.846-17.393-38.846-38.848v-77.692c0-10.725-8.696-19.423-19.423-19.423s-19.423 8.698-19.423 19.423v77.692c0 21.455-17.391 38.848-38.844 38.848H570.04c-21.453 0-38.846-17.393-38.846-38.848v-77.692c0-10.725-8.696-19.423-19.423-19.423s-19.423 8.698-19.423 19.423v77.692c0 21.455-17.391 38.848-38.844 38.848h-19.425c-21.453 0-38.846-17.393-38.846-38.848v-77.692c0-10.725-8.696-19.423-19.421-19.423-10.729 0-19.425 8.698-19.425 19.423v77.692c0 21.455-17.391 38.848-38.846 38.848h-19.423c-21.453 0-38.846-17.393-38.846-38.848v-77.692c0-10.725-8.696-19.423-19.421-19.423-10.729 0-19.425 8.698-19.425 19.423v77.692c0 21.455-17.391 38.848-38.846 38.848h-38.84c-21.455 0-38.846-17.393-38.846-38.848l3.885-19.423h-3.885l19.423-135.958c0-42.909 34.784-77.691 77.691-77.691H822.54c42.909 0 77.691 34.782 77.691 77.691l19.423 135.958h-3.885l3.885 19.423zM628.312 764.529c-10.725 0-19.423 8.698-19.423 19.423 0 10.727 8.698 19.425 19.423 19.425 10.727 0 19.423-8.698 19.423-19.425-0.001-10.725-8.696-19.423-19.423-19.423z"
    p-id="8390"></path>
</svg>
