<?xml version="1.0" standalone="no"?><!DOCTYPE svg PUBLIC "-//W3C//DTD SVG 1.1//EN"
  "http://www.w3.org/Graphics/SVG/1.1/DTD/svg11.dtd">
<svg t="1547175256635" class="icon" style="" viewBox="0 0 1024 1024" version="1.1" xmlns="http://www.w3.org/2000/svg"
     p-id="1430" xmlns:xlink="http://www.w3.org/1999/xlink" width="200" height="200">
  <defs>
    <style type="text/css"></style>
  </defs>
  <path
    d="M820.16483555 546.36999111h-215.54062222c-6.99050667 0-13.39847111 1.16508445-19.22389333 4.07779556-22.71914667 4.66033778-39.61287111 25.04931555-39.61287111 49.51608888v221.36604445c0 110.10048 89.71150222 199.81198222 199.81198222 199.81198222h74.56540444c110.10048 0 199.81198222-89.71150222 199.81198223-199.81198222v-74.56540445c0-110.68302222-89.71150222-200.39452445-199.81198223-200.39452444z m99.03217778 274.95992889c0 54.75896889-44.27320889 99.03217778-99.03217778 99.03217778h-74.56540444c-54.75896889 0-99.03217778-44.27320889-99.03217778-99.03217778v-174.18012445H820.74737778c54.75896889 0 99.03217778 44.27320889 99.03217777 99.03217778v75.14794667zM438.59968 550.44778667c-5.82542222-2.33016889-12.23338667-4.07779555-19.22389333-4.07779556h-215.54062222c-110.10048 0-199.81198222 89.71150222-199.81198223 199.81198222V820.74737778c0 110.10048 89.71150222 199.81198222 199.81198223 199.81198222h74.56540444c110.10048 0 199.81198222-89.71150222 199.81198222-199.81198222v-221.36604445c0.58254222-23.88423111-16.89372445-44.27320889-39.61287111-48.93354666zM378.01528889 821.32992c0 54.75896889-44.27320889 99.03217778-99.03217778 99.03217778H203.83516445c-54.75896889 0-99.03217778-44.27320889-99.03217778-99.03217778v-74.56540445c0-54.75896889 44.27320889-99.03217778 99.03217778-99.03217777H378.01528889v173.59758222zM203.83516445 477.63000889h215.54062222c6.99050667 0 13.39847111-1.16508445 19.22389333-4.07779556 22.71914667-4.66033778 39.61287111-25.04931555 39.61287111-49.51608888v-221.36604445c0-110.10048-89.71150222-199.81198222-199.81198222-199.81198222H203.83516445c-110.10048 0-199.81198222 89.71150222-199.81198223 199.81198222v74.56540445c0 110.68302222 89.71150222 200.39452445 199.81198223 200.39452444z m-99.03217778-274.95992889c0-54.75896889 44.27320889-99.03217778 99.03217778-99.03217778h74.56540444c54.75896889 0 99.03217778 44.27320889 99.03217778 99.03217778v174.18012445H203.83516445c-54.75896889 0-99.03217778-44.27320889-99.03217778-99.03217778V202.67008zM820.16483555 2.85809778h-74.56540444c-110.10048 0-199.81198222 89.71150222-199.81198222 199.81198222v221.36604445c0 24.46677333 16.89372445 44.27320889 39.61287111 49.51608888 5.82542222 2.33016889 12.23338667 4.07779555 19.22389333 4.07779556h215.54062222c110.10048 0 199.81198222-89.71150222 199.81198223-199.81198222V202.67008c0-110.10048-89.71150222-199.81198222-199.81198223-199.81198222z m99.03217778 274.95992889c0 54.75896889-44.27320889 99.03217778-99.03217778 99.03217778H645.98471111V202.67008c0-54.75896889 44.27320889-99.03217778 99.03217778-99.03217778h74.56540444c54.75896889 0 99.03217778 44.27320889 99.03217778 99.03217778v75.14794667z"
    fill="" p-id="1431"></path>
</svg>
