<?xml version="1.0" standalone="no"?><!DOCTYPE svg PUBLIC "-//W3C//DTD SVG 1.1//EN"
  "http://www.w3.org/Graphics/SVG/1.1/DTD/svg11.dtd">
<svg t="1562119737015" class="icon" viewBox="0 0 1024 1024" version="1.1" xmlns="http://www.w3.org/2000/svg" p-id="6834"
     xmlns:xlink="http://www.w3.org/1999/xlink" width="200" height="200">
  <defs>
    <style type="text/css"></style>
  </defs>
  <path
    d="M960 42.666667H234.666667c-12.8 0-21.333333 8.533333-21.333334 21.333333v426.666667H64c-12.8 0-21.333333 8.533333-21.333333 21.333333v448c0 8.533333 6.4 17.066667 14.933333 19.2 2.133333 2.133333 4.266667 2.133333 6.4 2.133333 6.4 0 12.8-2.133333 17.066667-8.533333L160 874.666667H533.333333c12.8 0 21.333333-8.533333 21.333334-21.333334V640h288l100.266666 119.466667c4.266667 4.266667 10.666667 8.533333 17.066667 8.533333 2.133333 0 4.266667 0 6.4-2.133333 8.533333-2.133333 14.933333-10.666667 14.933333-19.2V64c0-12.8-8.533333-21.333333-21.333333-21.333333zM512 832H149.333333c-6.4 0-12.8 2.133333-17.066666 8.533333L85.333333 900.266667V533.333333h426.666667v298.666667z m426.666667-145.066667l-68.266667-83.2c-4.266667-4.266667-10.666667-6.4-17.066667-6.4H554.666667v-85.333333c0-12.8-8.533333-21.333333-21.333334-21.333333H256V85.333333h682.666667v601.6zM320 576h-42.666667v128h42.666667v-128z m0 170.666667h-42.666667v42.666666h42.666667v-42.666666z m213.333333-520.533334l64-32 64 32v38.4l-72.533333 36.266667c-8.533333 4.266667-12.8 10.666667-12.8 19.2v42.666667h42.666667v-29.866667l72.533333-36.266667c6.4-4.266667 12.8-10.666667 12.8-19.2v-64c0-8.533333-4.266667-14.933333-12.8-19.2l-85.333333-42.666666c-6.4-2.133333-12.8-2.133333-19.2 0l-85.333334 42.666666c-6.4 4.266667-10.666667 10.666667-10.666666 19.2v64h42.666666v-51.2zM576 448h42.666667v-42.666667h-42.666667v42.666667z"
    p-id="6835"></path>
</svg>
