<?xml version="1.0" standalone="no"?><!DOCTYPE svg PUBLIC "-//W3C//DTD SVG 1.1//EN" "http://www.w3.org/Graphics/SVG/1.1/DTD/svg11.dtd"><svg t="1626575887532" class="icon" viewBox="0 0 1024 1024" version="1.1" xmlns="http://www.w3.org/2000/svg" p-id="6830" xmlns:xlink="http://www.w3.org/1999/xlink" width="64" height="64"><defs><style type="text/css"></style></defs><path d="M483.4 63.6c-122 0-219.6 97.6-219.6 219.5 0 122 97.6 219.5 219.6 219.5C603.3 502.6 703 405 703 283.1c-0.1-122-99.7-219.5-219.6-219.5z m0 392.3c-95.5 0-172.8-77.2-172.8-172.8 0-95.5 77.3-172.8 172.8-172.8 46.8 0 89.5 18.3 124 52.9 32.5 32.5 48.8 75.2 48.8 119.9 0 95.5-77.3 172.8-172.8 172.8z" p-id="6831"></path><path d="M481.3 454.8C213 454.8 82.9 611.3 82.9 934.5c0 16.3 12.2 24.4 24.4 24.4 10.2 0 22.4-8.1 22.4-24.4 0-294.7 111.8-430.9 351.7-430.9 14.2 0 24.4-10.2 24.4-24.4-0.1-16.2-12.3-24.4-24.5-24.4zM902.2 601.2c-42.7-44.7-117.9-50.8-170.8-12.2-48.8-38.6-126-32.5-170.8 12.2-50.8 50.8-50.8 136.2 2 189l154.5 142.3c4.1 4.1 10.2 6.1 16.3 6.1 4.1 0 10.2 0 14.2-6.1l154.5-144.3c50.9-50.8 50.9-136.2 0.1-187z m-32.6 156.5L731.4 887.8 593.1 759.7c-16.3-16.3-24.4-36.6-24.4-61s8.1-44.7 24.4-61c16.3-16.3 38.6-26.4 61-26.4 26.4 0 44.7 8.1 59 26.4 2 4.1 8.1 6.1 14.2 6.1 8.1 0 16.3-4.1 20.3-8.1 34.6-30.5 89.4-30.5 122 0 32.6 36.6 32.6 89.5 0 122z" p-id="6832"></path></svg>
