<?xml version="1.0" standalone="no"?><!DOCTYPE svg PUBLIC "-//W3C//DTD SVG 1.1//EN"
  "http://www.w3.org/Graphics/SVG/1.1/DTD/svg11.dtd">
<svg t="1562042572691" class="icon" viewBox="0 0 1024 1024" version="1.1" xmlns="http://www.w3.org/2000/svg" p-id="7146"
     xmlns:xlink="http://www.w3.org/1999/xlink" width="200" height="200">
  <defs>
    <style type="text/css"></style>
  </defs>
  <path
    d="M979.444451 491.469955c7.568361-2.263579 12.826947-9.258346 12.826947-17.107729L992.271398 247.126617c0-20.002647-16.580331-36.336602-36.917895-36.336602L64.234827 210.790015c-20.326015 0-36.910195 16.333955-36.910195 36.336602l0 676.917895c0 19.975699 16.561083 36.294256 36.910195 36.294256l655.286857 0.088541c0.31182 0 0.592842 0 1.012451 0 0.512 0 48.428271-1.797774 77.338947 23.174737 3.449263 2.975759 7.803188 4.488662 12.041624 4.488662 5.050707 0 10.086015-2.113444 13.643068-6.059308 6.690647-7.502917 5.855278-18.705323-1.605293-25.284331-38.819609-33.603368-96.036571-32.413835-102.71182-32.113564l-654.882647-0.080842c-0.30797 0-0.50815-0.219429-0.50815-0.477353L63.849865 247.142015c0-0.323368 0.20018-0.492752 0.50815-0.492752l891.118677-0.130887c0.30797 0 0.523549 0.242526 0.523549 0.477353l0 214.766677c-24.075549 9.754947-44.882767 25.569203-60.766316 46.130045-19.105684 24.791579-29.218647 54.399038-29.218647 85.661835 0 31.197353 10.112962 60.735519 29.218647 85.646436 15.856602 20.564692 36.66382 36.375098 60.766316 46.126195l0 198.752241c0 0.281023-0.215579 0.473504-0.523549 0.473504L878.330226 924.552662c-10.001323 0-18.204872 8.049564-18.204872 17.873805 0 9.843489 8.207398 17.927699 18.204872 17.927699l77.138767 0c20.326015 0 36.914045-16.303158 36.914045-36.294256l0-211.375158c0-7.853233-5.154647-14.824902-12.823098-17.107729-46.222436-14.008782-77.165714-55.022677-77.165714-102.038135C902.197895 546.450286 933.252812 505.501835 979.444451 491.469955z"
    p-id="7147"></path>
  <path
    d="M810.007098 282.901173c0-9.820391-8.199699-17.912301-18.204872-17.912301-10.024421 0-18.220271 8.095759-18.220271 17.912301l0 50.534015c0 9.839639 8.203549 17.866105 18.220271 17.866105 10.009023 0 18.204872-8.030316 18.204872-17.866105L810.007098 282.901173zM810.007098 412.383278c0-9.839639-8.199699-17.931549-18.204872-17.931549-10.024421 0-18.220271 8.095759-18.220271 17.931549l0 50.449323c0 9.839639 8.203549 17.927699 18.220271 17.927699 10.009023 0 18.204872-8.09191 18.204872-17.927699L810.007098 412.383278zM810.007098 541.826887c0-9.858887-8.199699-17.900752-18.204872-17.900752-10.024421 0-18.220271 8.045714-18.220271 17.900752l0 50.514767c0 9.843489 8.203549 17.889203 18.220271 17.889203 10.009023 0 18.204872-8.053414 18.204872-17.889203L810.007098 541.826887z"
    p-id="7148"></path>
  <path
    d="M810.007098 677.364451c0-9.816541-8.199699-17.896902-18.204872-17.896902-10.024421 0-18.220271 8.09191-18.220271 17.896902l0 50.537865c0 9.843489 8.203549 17.873805 18.220271 17.873805 10.009023 0 18.204872-8.030316 18.204872-17.873805L810.007098 677.364451z"
    p-id="7149"></path>
  <path
    d="M810.007098 813.918316c0-9.816541-8.199699-17.900752-18.204872-17.900752-10.024421 0-18.220271 8.09191-18.220271 17.900752l0 50.541714c0 9.843489 8.203549 17.873805 18.220271 17.873805 10.009023 0 18.204872-8.030316 18.204872-17.873805L810.007098 813.918316z"
    p-id="7150"></path>
  <path
    d="M552.332511 556.085895c41.945504 45.514105 106.103338 82.53594 173.956812 100.140271-10.490226 8.49612-22.824421 26.096602-29.603609 37.622376-33.926737-10.316992-66.629293-26.708692-96.841143-45.517955l0 0.608241c-8.022617 122.591278-16.657323 170.534496-33.926737 188.134977-11.106165 12.134015-22.828271 15.779609-40.709774 17.592782-17.269414 1.212632-49.344481 1.212632-82.670677-1.204932-0.604391-12.749955-6.167098-30.350436-13.558376-42.484451 32.694857 3.637895 64.153985 3.637895 75.87609 3.637895 11.106165 0 17.265564-1.208782 22.824421-6.067008 11.106165-10.925233 18.508992-47.943218 25.28818-138.370887l-149.276872 0c-16.657323 90.427669-58.610526 155.366977-188.758617 190.56409-4.931368-11.533474-16.657323-29.122406-26.527759-38.234466 116.585865-27.917474 152.976361-80.110677 168.401805-152.329624L261.189293 670.177203l0-21.846617c-25.29203 16.38785-51.823639 31.555368-81.427248 44.913564-4.315429-10.925233-18.505143-28.525714-28.987669-37.021835 61.682526-26.092752 111.654496-61.293714 150.516451-100.136421l-132.619549 0L168.671278 515.426165l168.401805 0c16.037534-20.025744 28.991519-40.663579 40.713624-61.901955L206.289805 453.524211l0-40.055338 102.407699 0c-9.866586-20.630135-30.850887-52.193203-49.964271-74.64806l36.394346-18.204872c20.352962 23.059248 43.181233 54.618466 53.65606 75.860692l-33.303098 16.992241 80.811308 0c14.801805-35.805353 24.056301-72.823338 28.987669-108.032l48.112602 4.858226c-6.174797 34.588872-15.421594 69.181594-27.755789 103.169925l73.400782 0c20.356812-25.492211 45.644992-64.331068 59.222617-91.03206l41.945504 13.958737c-16.649624 26.708692-36.390496 54.618466-55.515429 77.073323l99.320301 0 0 40.051489-235.647038 0c-10.494075 21.242226-21.588692 41.88006-35.778406 61.905805l313.359398 0 0 40.663579L552.332511 556.085895 552.332511 556.085895zM572.685474 628.909233c-28.375579-21.242226-53.04782-46.118496-72.172752-72.823338L362.330466 556.085895c-21.584842 26.092752-46.272481 50.372331-75.256301 72.823338L572.685474 628.909233z"
    p-id="7151"></path>
  <path
    d="M274.23182 210.790015l549.922647-147.394406c0.300271-0.080842 0.562045 0.092391 0.623639 0.323368l39.397053 147.071038 37.553083 0-41.872361-156.325534c-5.181594-19.328962-25.419068-30.812391-45.056-25.553805L135.803188 210.790015 274.23182 210.790015z"
    p-id="7152"></path>
</svg>
