<svg class="icon" viewBox="0 0 1024 1024" xmlns="http://www.w3.org/2000/svg" width="200" height="200">
  <defs>
    <style/>
  </defs>
  <path
    d="M814.899 729.555c-52.182-15.88-113.72-27.297-179.772-33.62 83.38-122.791 144.99-275.473 144.99-379.626 0-144.027-119.428-260.733-266.739-260.733-147.317 0-266.739 116.706-266.739 260.733 0 102.386 61.575 255.895 145.228 379.483-66.637 6.29-128.728 17.752-181.31 33.753-60.228 18.326-132.023 49.885-132.023 96.16 0 89.684 218.426 136.608 434.195 136.608 112.413 0 218.349-12.394 298.294-34.9 88.905-25.027 135.899-60.197 135.899-101.707 0-46.264-71.794-77.823-132.023-96.151zM514.325 181.99c60.772 0 110.043 49.269 110.043 110.064 0 60.753-49.27 110.034-110.043 110.034-60.784 0-110.055-49.28-110.055-110.034 0-60.795 49.27-110.064 110.055-110.064zm368.954 672.444c-18.848 12.545-47.584 24.46-83.1 34.459-76.514 21.538-178.6 33.402-287.45 33.402s-210.939-11.864-287.452-33.402c-35.516-9.999-64.25-21.914-83.1-34.459-15.235-10.14-23.626-20.343-23.626-28.73 0-5.562 17.592-31.687 103.655-57.874 56.15-17.087 123.938-28.756 196.708-34.17 24.391 32.316 50.161 61.677 76.473 86.333 4.392 4.923 10.781 8.1 17.991 8.1 7.101 0 13.408-3.081 17.8-7.87 26.407-24.668 52.311-54.062 76.838-86.45 72.206 5.462 139.457 17.093 195.233 34.068 86.064 26.191 103.656 52.306 103.656 57.866 0 8.384-8.391 18.586-23.626 28.727z"/>
</svg>
