<svg class="icon" viewBox="0 0 1024 1024" xmlns="http://www.w3.org/2000/svg" width="200" height="200">
  <defs>
    <style/>
  </defs>
  <path
    d="M896 928H768c-35.344 0-64-28.656-64-64V416c0-35.344 28.656-64 64-64h128c35.344 0 64 28.656 64 64v448c0 35.344-28.656 64-64 64zm0-512H768v448h128V416zM576 928H448c-35.344 0-64-28.656-64-64V160c0-35.344 28.656-64 64-64h128c35.344 0 64 28.656 64 64v704c0 35.344-28.656 64-64 64zm0-768H448v704h128V160zM256 928H128c-35.344 0-64-28.656-64-64V544c0-35.344 28.656-64 64-64h128c35.344 0 64 28.656 64 64v320c0 35.344-28.656 64-64 64zm0-384H128v320h128V544z"/>
</svg>
