<?xml version="1.0" standalone="no"?><!DOCTYPE svg PUBLIC "-//W3C//DTD SVG 1.1//EN"
  "http://www.w3.org/Graphics/SVG/1.1/DTD/svg11.dtd">
<svg t="1551844130236" class="icon" style="" viewBox="0 0 1024 1024" version="1.1" xmlns="http://www.w3.org/2000/svg"
     p-id="3260" xmlns:xlink="http://www.w3.org/1999/xlink" width="200" height="200">
  <defs>
    <style type="text/css"></style>
  </defs>
  <path
    d="M581.93408 640.28672a20.48 20.48 0 0 0-20.48-20.48H236.98432V257.26976h549.86752v157.66528a20.48 20.48 0 0 0 40.96 0V257.26976c0-22.58432-18.37568-40.96-40.96-40.96H236.98432c-22.58432 0-40.96 18.37568-40.96 40.96v362.53696c0 22.58432 18.37568 40.96 40.96 40.96h324.46976a20.48 20.48 0 0 0 20.48-20.48zM583.59808 684.81024h-143.36v81.92h-138.24v40.96h419.84v-40.96h-138.24z"
    p-id="3261"></path>
  <path
    d="M804.0704 505.1648c-18.40128 0-29.9008-19.92192-20.70016-35.85536a23.90016 23.90016 0 0 0-8.75008-32.65024l-32.06656-18.51392a23.90016 23.90016 0 0 0-32.65024 8.75008c-9.20064 15.93344-32.19968 15.93344-41.40032 0a23.9104 23.9104 0 0 0-32.65536-8.75008l-32.06656 18.51392a23.90016 23.90016 0 0 0-8.75008 32.65024c9.20064 15.93344-2.29888 35.85536-20.70016 35.85536a23.9104 23.9104 0 0 0-23.90528 23.90528v37.02784a23.9104 23.9104 0 0 0 23.90528 23.90528c18.40128 0 29.9008 19.92192 20.70016 35.85536a23.90016 23.90016 0 0 0 8.75008 32.65024l32.06656 18.51392a23.90016 23.90016 0 0 0 32.65024-8.75008c9.20064-15.93344 32.19968-15.93344 41.40032 0a23.90016 23.90016 0 0 0 32.65024 8.75008l32.06656-18.51392a23.90016 23.90016 0 0 0 8.75008-32.65024c-9.20064-15.93344 2.29888-35.85536 20.70016-35.85536a23.9104 23.9104 0 0 0 23.90528-23.90528v-37.02784a23.90016 23.90016 0 0 0-23.90016-23.90528z m-89.27232 86.7584c-24.48896 14.13632-55.80288 5.74976-69.9392-18.7392s-5.74976-55.80288 18.7392-69.9392c24.48896-14.13632 55.80288-5.74976 69.9392 18.7392s5.74976 55.80288-18.7392 69.9392zM266.55744 326.8352h40.96v220.7488h-40.96zM339.17952 395.93472h40.96v151.6544h-40.96zM411.79648 349.67552h40.96v197.9136h-40.96zM484.41856 451.40992h40.96v96.17408h-40.96z"
    p-id="3262"></path>
</svg>
