<?xml version="1.0" standalone="no"?><!DOCTYPE svg PUBLIC "-//W3C//DTD SVG 1.1//EN"
  "http://www.w3.org/Graphics/SVG/1.1/DTD/svg11.dtd">
<svg t="1562232545792" class="icon" viewBox="0 0 1024 1024" version="1.1" xmlns="http://www.w3.org/2000/svg" p-id="564"
     xmlns:xlink="http://www.w3.org/1999/xlink" width="200" height="200">
  <defs>
    <style type="text/css"></style>
  </defs>
  <path
    d="M175.181658 915.640212c-13.845973 0-25.885949-11.437978-25.885949-25.885949l0-74.647854c0-148.69371 89.697825-281.133451 228.157554-336.517343l18.661964-7.825985-16.253968-12.641975c-51.771899-40.93592-81.87184-101.737801-81.87184-167.355673 0-117.389771 95.717813-212.505585 212.505585-212.505585 117.389771 0 212.505585 95.717813 212.505585 212.505585 0 65.617872-29.497942 126.419753-81.87184 167.355673l-16.253968 12.641975 18.661964 7.825985c139.061728 55.383892 228.157554 187.221634 228.157554 336.517343l0 74.647854c0 13.845973-11.437978 25.885949-25.885949 25.885949L175.181658 915.640212 175.181658 915.640212zM512.300999 503.873016c-171.569665 0-311.233392 139.061728-311.233392 311.233392l0 48.761905 621.864785 0 0-48.761905C822.932393 643.536743 683.870664 503.873016 512.300999 503.873016L512.300999 503.873016zM511.699001 130.031746c-89.095826 0-161.335685 72.239859-161.335685 161.335685s72.239859 161.335685 161.335685 161.335685c89.095826 0 161.335685-72.239859 161.335685-161.335685S600.794827 130.031746 511.699001 130.031746L511.699001 130.031746z"
    p-id="565"></path>
  <path
    d="M25.885949 803.066432c-13.845973 0-25.885949-11.437978-25.885949-25.885949l0-57.791887c0-107.75779 59.597884-205.883598 154.713698-255.247501l13.243974-6.621987-10.23398-11.437978c-29.497942-32.507937-45.751911-74.045855-45.751911-117.389771 0-81.269841 55.383892-151.703704 134.245738-170.365667 1.805996-0.601999 4.213992-0.601999 6.019988-0.601999 12.039976 0 22.273956 7.825985 25.283951 19.865961 3.009994 13.845973-5.417989 27.691946-18.661964 30.70194-55.985891 13.845973-94.513815 63.209877-94.513815 121.001764 0 48.761905 28.895944 93.309818 73.443857 113.175779 3.009994 1.203998 5.417989 3.009994 7.825985 5.417989 0.601999 0.601999 0.601999 0.601999 1.203998 1.203998 1.203998 1.203998 1.805996 3.009994 3.009994 5.417989l0.601999 0.601999c0.601999 1.203998 0.601999 1.805996 1.203998 3.009994 0 0.601999 0.601999 1.203998 0.601999 1.805996 0 0.601999 0 1.805996 0 3.009994l0 0.601999c0.601999 2.407995 0.601999 4.213992 0.601999 6.019988 0 0.601999-0.601999 1.203998-0.601999 1.805996l-0.601999 1.203998c-0.601999 1.203998-0.601999 1.805996-0.601999 3.009994 0 0.601999 0 1.203998-0.601999 1.805996-3.611993 7.825985-10.835979 13.845973-19.865961 15.049971l-0.601999 0-0.601999 0c-104.747795 26.487948-178.191652 120.399765-178.191652 228.759553l0 57.791887C51.1699 792.230453 39.731922 803.066432 25.885949 803.066432L25.885949 803.066432z"
    p-id="566"></path>
  <path
    d="M998.114051 803.066432c-13.845973 0-25.885949-11.437978-25.885949-25.885949l0-57.791887c0-108.359788-73.443857-202.271605-178.191652-228.759553l-0.601999 0-0.601999 0c-9.029982-1.203998-16.253968-6.621987-19.865961-15.049971 0-0.601999 0-1.203998-0.601999-1.805996 0-1.203998-0.601999-1.805996-0.601999-3.009994l-0.601999-1.203998c0-0.601999-0.601999-1.203998-0.601999-1.805996 0-1.805996 0-3.009994 0.601999-5.417989l0-0.601999c0-0.601999 0-1.805996 0-3.009994 0.601999-0.601999 0.601999-1.203998 0.601999-1.805996 0 0 0.601999-0.601999 0.601999-1.805996l0.601999-1.203998c1.203998-3.009994 2.407995-4.213992 3.611993-5.417989 0.601999-0.601999 0.601999-0.601999 1.203998-1.203998 1.805996-1.805996 4.815991-4.213992 7.825985-5.417989 44.547913-19.865961 73.443857-64.413874 73.443857-113.175779 0-55.985891-37.925926-105.349794-91.503821-119.797766-13.845973-3.611993-22.273956-18.059965-18.059965-31.905938 3.009994-11.437978 13.243974-19.263962 24.681952-19.263962 2.407995 0 4.213992 0.601999 6.621987 0.601999 76.453851 20.46796 129.429747 90.299824 129.429747 169.16167 0 43.343915-16.253968 84.881834-45.751911 117.389771l-10.23398 11.437978 13.243974 6.621987c95.717813 49.363904 154.713698 147.489712 154.713698 255.247501l0 57.791887C1024 792.230453 1012.562022 803.066432 998.114051 803.066432L998.114051 803.066432z"
    p-id="567"></path>
</svg>
