<?xml version="1.0" standalone="no"?><!DOCTYPE svg PUBLIC "-//W3C//DTD SVG 1.1//EN" "http://www.w3.org/Graphics/SVG/1.1/DTD/svg11.dtd"><svg t="1626575576500" class="icon" viewBox="0 0 1024 1024" version="1.1" xmlns="http://www.w3.org/2000/svg" p-id="3946" xmlns:xlink="http://www.w3.org/1999/xlink" width="64" height="64"><defs><style type="text/css"></style></defs><path d="M128 96h768a32 32 0 0 1 32 32v768a32 32 0 0 1-32 32H128a32 32 0 0 1-32-32V128a32 32 0 0 1 32-32z m0 32v768h768V128H128z m640 128v320h-64v-256h-256V256h320zM416 608h448v64H352V160h64v448z m288 96h64v64h-64v-64zM256 256h64v64H256V256zM128 256h64v32H128V256z m0 128h64v32H128v-32z m0 128h64v32H128v-32z m0 128h64v32H128v-32z m0 128h64v32H128v-32z m96 64h32v64H224v-64z m128 0h32v64h-32v-64z m128 0h32v64h-32v-64z m128 0h32v64h-32v-64z m128 0h32v64h-32v-64z" p-id="3947"></path></svg>
